<svg width="748" height="321" viewBox="0 0 748 321" fill="none" xmlns="http://www.w3.org/2000/svg">
<g clip-path="url(#clip0_383_5100)">
<path d="M240.653 200.127V103.817C240.653 97.4254 238.112 91.2954 233.589 86.7757C229.067 82.2559 222.933 79.7168 216.537 79.7168H120.165L240.653 200.127Z" fill="url(#paint0_linear_383_5100)"/>
<path d="M240.653 119.852V216.161C240.653 222.553 238.112 228.683 233.589 233.203C229.067 237.722 222.933 240.261 216.537 240.261H120.165L240.653 119.852Z" fill="url(#paint1_linear_383_5100)"/>
<path d="M80.002 119.852V216.161C80.002 222.553 82.5427 228.683 87.0654 233.203C91.588 237.722 97.722 240.261 104.118 240.261H200.49L80.002 119.852Z" fill="url(#paint2_linear_383_5100)"/>
<path d="M80.002 200.127V103.817C80.002 97.4254 82.5427 91.2954 87.0654 86.7757C91.588 82.2559 97.722 79.7168 104.118 79.7168H120.165L160.327 119.853L80.002 200.127Z" fill="url(#paint3_linear_383_5100)"/>
</g>
<path d="M357.909 121.59C365.047 121.477 372.122 122.934 378.629 125.856C385.136 128.778 390.915 133.093 395.554 138.494C405.652 149.728 410.7 163.772 410.7 180.624C410.7 197.477 405.652 211.529 395.554 222.781C390.923 228.195 385.147 232.525 378.64 235.461C372.132 238.396 365.053 239.865 357.909 239.762C344.265 239.762 333.65 235.279 325.986 226.337V236.644H288.704V80H325.961V135.015C333.728 126.073 344.265 121.59 357.909 121.59ZM332.511 198.301C337.143 202.609 343.246 205.005 349.586 205.005C355.925 205.005 362.028 202.609 366.66 198.301C368.875 195.935 370.593 193.153 371.713 190.117C372.834 187.082 373.334 183.855 373.185 180.624C373.33 177.398 372.828 174.176 371.708 171.145C370.588 168.114 368.872 165.336 366.66 162.973C362.028 158.666 355.925 156.27 349.586 156.27C343.246 156.27 337.143 158.666 332.511 162.973C330.295 165.334 328.574 168.111 327.449 171.142C326.325 174.173 325.819 177.397 325.961 180.624C325.815 183.856 326.319 187.085 327.444 190.12C328.569 193.156 330.292 195.937 332.511 198.301V198.301Z" fill="white"/>
<path d="M498.105 124.73H535.414V236.538H498.105V225.355C491.374 234.958 480.966 239.759 466.881 239.759C461.314 239.935 455.773 238.917 450.636 236.774C445.499 234.631 440.885 231.413 437.107 227.339C429.392 219.059 425.534 207.171 425.534 191.676V124.73H462.842V186.883C462.665 189.283 462.982 191.693 463.774 193.967C464.567 196.24 465.818 198.328 467.451 200.102C469.091 201.62 471.019 202.796 473.122 203.562C475.225 204.327 477.46 204.667 479.697 204.56C482.201 204.719 484.711 204.342 487.056 203.453C489.401 202.564 491.527 201.184 493.29 199.406C496.754 195.16 498.475 189.764 498.105 184.306V124.73Z" fill="white"/>
<path d="M667.999 236.541H626.289L594.289 188.922V236.541H556.98V80H594.289V171.477L623.26 124.733H666.42L628.671 180.624L667.999 236.541Z" fill="white"/>
<defs>
<linearGradient id="paint0_linear_383_5100" x1="180.418" y1="200.127" x2="180.418" y2="79.7168" gradientUnits="userSpaceOnUse">
<stop stop-color="#A736E7"/>
<stop offset="1" stop-color="#5500E7"/>
</linearGradient>
<linearGradient id="paint1_linear_383_5100" x1="243.829" y1="121.678" x2="161.608" y2="264.168" gradientUnits="userSpaceOnUse">
<stop stop-color="#A4DC66"/>
<stop offset="1" stop-color="#43DC66"/>
</linearGradient>
<linearGradient id="paint2_linear_383_5100" x1="151.279" y1="160.966" x2="103.555" y2="243.665" gradientUnits="userSpaceOnUse">
<stop stop-color="#05F3FF"/>
<stop offset="1" stop-color="#0068FF"/>
</linearGradient>
<linearGradient id="paint3_linear_383_5100" x1="132.684" y1="86.9322" x2="70.5341" y2="194.662" gradientUnits="userSpaceOnUse">
<stop stop-color="#A4DC66"/>
<stop offset="1" stop-color="#43DC66"/>
</linearGradient>
<clipPath id="clip0_383_5100">
<rect width="161.104" height="161" fill="white" transform="translate(80 80)"/>
</clipPath>
</defs>
</svg>
