<svg width="851" height="493" viewBox="0 0 851 493" fill="none" xmlns="http://www.w3.org/2000/svg">
<path d="M458.938 88.2011C466.914 88.2011 474.89 90.0409 482.866 93.1071C490.229 96.1734 496.978 101.079 502.5 107.825C514.158 120.704 519.68 136.648 519.68 156.272C519.68 175.283 514.158 191.841 502.5 204.72C496.978 210.852 490.843 215.758 482.866 219.438C475.504 222.504 467.528 224.344 458.938 224.344C443.599 224.344 431.328 219.438 422.125 209.012V220.664H379.176V40.3672H421.511V103.532C430.714 93.1071 442.985 88.2011 458.938 88.2011ZM429.487 175.897C435.009 180.803 441.758 183.256 449.121 183.256C456.484 183.256 463.233 180.803 468.755 175.897C471.209 173.444 473.05 169.764 474.277 166.698C475.504 163.018 476.117 159.339 476.117 155.659C476.117 151.98 475.504 148.3 474.277 144.621C473.05 140.941 471.209 137.875 468.755 135.422C463.233 130.516 456.484 128.063 449.121 128.063C441.758 128.063 435.009 130.516 429.487 135.422C427.033 137.875 425.192 141.554 423.965 144.621C422.738 148.3 422.125 151.98 422.125 155.659C422.125 159.339 422.738 163.018 423.965 166.698C425.192 169.764 427.033 173.444 429.487 175.897Z" fill="white"/>
<path d="M619.076 91.8809H662.025V219.438H619.076V206.56C611.1 217.598 599.442 223.117 583.49 223.117C577.354 223.117 570.605 221.891 565.083 219.438C558.948 216.985 554.039 213.305 549.744 208.399C541.155 199.201 536.246 185.096 536.246 167.924V91.8809H579.195V163.018C579.195 165.471 579.195 168.538 580.422 170.991C581.036 173.444 582.876 175.897 584.717 177.737C586.558 179.576 589.012 180.803 591.466 181.416C593.92 182.029 596.374 182.643 598.829 182.643C601.896 182.643 604.351 182.643 607.418 181.416C609.873 180.19 612.327 178.963 614.781 176.51C618.462 171.604 620.917 165.471 620.303 159.339V91.8809H619.076Z" fill="white"/>
<path d="M813.574 219.438H765.717L728.904 164.858V219.438H685.955V40.3672H728.904V145.234L762.036 91.8806H811.12L768.171 155.659L813.574 219.438Z" fill="white"/>
<path d="M417.216 321.852V397.282C417.216 403.415 418.443 407.708 420.897 410.161C423.352 412.614 428.26 413.84 434.396 413.84H449.735V431.625H430.714C419.057 431.625 409.854 429.172 404.332 423.652C398.196 418.133 395.742 409.547 395.742 396.669V321.852H379.176V304.681H395.742V272.792H417.216V304.681H450.348V321.852H417.216Z" fill="white"/>
<path d="M513.546 308.361C520.295 304.068 528.885 302.228 538.702 302.228V324.305H533.18C509.251 324.305 497.594 337.184 497.594 362.94V432.238H476.119V304.681H497.594V325.532C501.275 318.173 506.797 312.653 513.546 308.361Z" fill="white"/>
<path d="M557.72 279.537C554.652 276.471 553.425 273.404 553.425 269.112C553.425 264.819 554.652 261.753 557.72 258.686C560.787 255.62 563.855 254.394 568.15 254.394C571.831 254.394 575.513 255.62 577.967 258.686C580.421 261.753 582.262 264.819 582.262 269.112C582.262 273.404 581.035 276.471 577.967 279.537C575.513 282.603 571.831 283.83 568.15 283.83C563.855 283.83 560.787 282.603 557.72 279.537ZM577.967 304.68V432.238H556.493V304.68H577.967Z" fill="white"/>
<path d="M648.527 310.2C657.117 305.294 666.32 302.841 677.364 302.841C688.408 302.841 698.838 305.294 708.042 310.813C717.245 316.332 724.608 323.691 730.13 333.504C735.652 343.316 738.106 354.968 738.106 367.846C738.106 380.724 735.652 392.376 730.13 402.188C724.608 412 717.859 419.973 708.042 425.492C698.838 431.011 688.408 434.077 677.364 434.077C666.32 434.077 657.117 431.624 648.527 426.718C639.937 421.812 633.802 415.68 629.507 408.321V492.337H608.032V304.681H629.507V327.984C633.802 320.625 639.937 315.106 648.527 310.2ZM710.496 342.702C706.815 335.343 701.293 329.824 694.543 326.145C687.794 322.465 680.432 320.625 672.455 320.625C664.479 320.625 657.73 322.465 650.981 326.145C644.232 329.824 639.324 335.343 635.029 342.702C631.347 350.061 628.893 358.034 628.893 367.846C628.893 377.658 630.734 385.63 635.029 392.989C638.71 400.348 644.232 405.868 650.981 409.547C657.73 413.227 664.479 415.067 672.455 415.067C680.432 415.067 687.794 413.227 694.543 409.547C701.293 405.868 706.201 400.348 710.496 392.989C714.177 385.63 716.018 377.045 716.018 367.233C716.018 358.647 714.177 350.061 710.496 342.702Z" fill="white"/>
<path d="M778.599 429.172C770.623 426.106 764.488 421.2 760.193 415.067C755.898 408.934 753.444 402.189 752.83 394.216H774.918C775.532 400.349 778.599 405.868 784.121 409.548C789.643 413.84 796.392 415.68 804.982 415.68C812.958 415.68 819.708 413.84 824.002 410.161C828.911 406.481 830.751 402.189 830.751 396.669C830.751 391.15 828.297 386.857 823.389 384.404C818.48 381.951 810.504 378.885 800.074 376.432C790.87 373.979 782.894 371.526 776.759 369.073C770.623 366.62 765.715 362.94 761.42 357.421C757.125 352.515 755.284 345.769 755.284 337.797C755.284 331.051 757.125 325.532 760.806 320.012C764.488 314.493 770.01 310.2 777.372 307.134C784.735 304.068 792.711 302.228 801.914 302.228C816.026 302.228 827.684 305.908 836.274 312.653C844.863 320.012 849.772 329.825 850.385 342.09H828.911C828.297 335.344 825.843 329.824 820.935 326.145C816.026 321.852 809.277 320.012 801.301 320.012C793.938 320.012 787.803 321.852 782.894 324.918C778.599 327.985 776.145 332.278 776.145 337.797C776.145 342.09 777.372 345.156 780.44 348.222C782.894 350.675 786.576 353.128 790.87 354.968C795.165 356.808 800.687 358.647 808.05 360.487C817.253 362.94 824.616 365.393 830.138 367.846C835.66 370.299 840.568 373.979 844.863 378.885C849.158 383.791 850.999 389.924 850.999 397.896C850.999 404.642 849.158 411.387 845.477 416.907C841.796 422.426 836.274 426.719 828.911 429.785C821.548 432.851 813.572 434.691 804.369 434.691C795.165 434.691 786.576 432.851 778.599 429.172Z" fill="white"/>
<path d="M144.799 91.8804L212.903 159.338L144.799 323.078L76.6943 159.338L144.799 91.8804ZM144.799 0.505371L0 144.62L144.799 492.949L289.598 144.62L144.799 0.505371Z" fill="url(#paint0_linear_38_28)"/>
<defs>
<linearGradient id="paint0_linear_38_28" x1="144.542" y1="0.505371" x2="144.542" y2="492.915" gradientUnits="userSpaceOnUse">
<stop stop-color="#17C0EA"/>
<stop offset="0.4479" stop-color="#AF47FF"/>
<stop offset="1" stop-color="#FF4A11"/>
</linearGradient>
</defs>
</svg>
