<svg width="1886" height="349" viewBox="0 0 1886 349" fill="none" xmlns="http://www.w3.org/2000/svg">
<path d="M658.566 69.8047C670.183 69.8047 681.8 72.4843 693.417 76.9504C704.141 81.4164 713.971 88.562 722.014 98.3873C738.993 117.145 747.036 140.368 747.036 168.95C747.036 196.64 738.993 220.756 722.014 239.514C713.971 248.446 705.035 255.591 693.417 260.951C682.694 265.417 671.077 268.096 658.566 268.096C636.225 268.096 618.352 260.951 604.947 245.766V262.737H542.392V0.134766H604.053V92.1348C618.352 76.9504 636.225 69.8047 658.566 69.8047ZM616.564 197.533C624.607 204.679 634.437 208.251 645.161 208.251C655.885 208.251 665.715 204.679 673.757 197.533C677.332 193.96 680.013 188.601 681.8 184.135C683.587 178.776 684.481 173.416 684.481 168.057C684.481 162.698 683.587 157.339 681.8 151.98C680.013 146.62 677.332 142.154 673.757 138.581C665.715 131.436 655.885 127.863 645.161 127.863C634.437 127.863 624.607 131.436 616.564 138.581C612.99 142.154 610.309 147.514 608.522 151.98C606.734 157.339 605.841 162.698 605.841 168.057C605.841 173.416 606.734 178.776 608.522 184.135C610.309 188.601 612.99 193.96 616.564 197.533Z" fill="white"/>
<path d="M892.699 75.1643H955.254V260.951H892.699V242.194C881.081 258.271 864.102 266.31 840.868 266.31C831.931 266.31 822.101 264.524 814.058 260.951C805.122 257.378 797.973 252.019 791.717 244.873C779.206 231.475 772.057 210.931 772.057 185.922V75.1643H834.612V178.776C834.612 182.349 834.612 186.815 836.399 190.388C837.293 193.961 839.974 197.533 842.655 200.213C845.336 202.893 848.91 204.679 852.485 205.572C856.059 206.465 859.634 207.359 863.209 207.359C867.677 207.359 871.251 207.359 875.72 205.572C879.294 203.786 882.869 201.999 886.443 198.427C891.805 191.281 895.38 182.349 894.486 173.417V75.1643H892.699Z" fill="white"/>
<path d="M1175.99 260.95H1106.28L1052.66 181.455V260.95H990.108V0.134766H1052.66V152.873L1100.92 75.1639H1172.41L1109.86 168.057L1175.99 260.95Z" fill="white"/>
<path d="M1253.73 101.067V210.931C1253.73 219.863 1255.52 226.116 1259.09 229.688C1262.67 233.261 1269.82 235.048 1278.75 235.048H1301.09V260.951H1273.39C1256.41 260.951 1243.01 257.378 1234.96 249.339C1226.03 241.3 1222.45 228.795 1222.45 210.038V101.067H1198.32V76.0572H1222.45V29.6106H1253.73V76.0572H1301.99V101.067H1253.73Z" fill="white"/>
<path d="M1393.14 80.5243C1402.97 74.2719 1415.48 71.5923 1429.78 71.5923V103.748H1421.73C1386.88 103.748 1369.9 122.505 1369.9 160.02V260.952H1338.62V75.1651H1369.9V105.534C1375.26 94.8156 1383.31 86.7768 1393.14 80.5243Z" fill="white"/>
<path d="M1458.37 38.5438C1453.91 34.0777 1452.12 29.6117 1452.12 23.3593C1452.12 17.1068 1453.91 12.6408 1458.37 8.1748C1462.84 3.70877 1467.31 1.92236 1473.57 1.92236C1478.93 1.92236 1484.29 3.70877 1487.86 8.1748C1491.44 12.6408 1494.12 17.1068 1494.12 23.3593C1494.12 29.6117 1492.33 34.0777 1487.86 38.5438C1484.29 43.0098 1478.93 44.7962 1473.57 44.7962C1467.31 44.7962 1461.95 43.0098 1458.37 38.5438ZM1487.86 75.1652V260.952H1456.59V75.1652H1487.86Z" fill="white"/>
<path d="M1589.74 83.2036C1602.25 76.0579 1615.65 72.4851 1631.74 72.4851C1647.82 72.4851 1663.02 76.0579 1676.42 84.0968C1689.83 92.1356 1700.55 102.854 1708.59 117.145C1716.64 131.437 1720.21 148.408 1720.21 167.165C1720.21 185.922 1716.64 202.893 1708.59 217.184C1700.55 231.476 1690.72 243.087 1676.42 251.126C1663.02 259.165 1647.82 263.631 1631.74 263.631C1615.65 263.631 1602.25 260.058 1589.74 252.912C1577.23 245.767 1568.29 236.835 1562.04 226.116V348.485H1530.76V75.1647H1562.04V109.107C1568.29 99.2812 1578.12 90.3492 1589.74 83.2036ZM1680 130.543C1674.63 119.825 1666.59 111.786 1656.76 106.427C1646.93 101.068 1636.21 98.3881 1624.59 98.3881C1612.97 98.3881 1603.14 101.068 1593.31 106.427C1583.48 111.786 1576.33 119.825 1570.08 130.543C1564.72 141.262 1561.14 152.874 1561.14 167.165C1561.14 181.456 1563.82 193.068 1570.08 203.786C1575.44 214.505 1583.48 222.544 1593.31 227.903C1603.14 233.262 1612.97 235.942 1624.59 235.942C1636.21 235.942 1646.93 233.262 1656.76 227.903C1666.59 222.544 1673.74 214.505 1680 203.786C1685.36 193.068 1688.04 180.563 1688.04 166.272C1688.93 153.767 1686.25 141.262 1680 130.543Z" fill="white"/>
<path d="M1780.08 256.486C1768.47 252.02 1759.53 244.874 1753.27 235.942C1747.02 227.01 1743.44 217.185 1742.55 205.573H1774.72C1775.62 214.505 1780.08 222.544 1788.13 227.903C1796.17 234.156 1806 236.835 1818.51 236.835C1830.13 236.835 1839.96 234.156 1846.21 228.796C1853.36 223.437 1856.04 217.185 1856.04 209.146C1856.04 201.107 1852.47 194.855 1845.32 191.282C1838.17 187.709 1826.55 183.243 1811.36 179.67C1797.96 176.097 1786.34 172.524 1777.4 168.952C1768.47 165.379 1761.32 160.02 1755.06 151.981C1748.81 144.835 1746.13 135.01 1746.13 123.398C1746.13 113.573 1748.81 105.534 1754.17 97.4952C1759.53 89.4564 1767.57 83.2039 1778.3 78.7379C1789.02 74.2719 1800.64 71.5923 1814.04 71.5923C1834.6 71.5923 1851.58 76.9515 1864.09 86.7768C1876.6 97.4952 1883.75 111.787 1884.64 129.651H1853.36C1852.47 119.825 1848.89 111.786 1841.75 106.427C1834.6 100.175 1824.77 97.4952 1813.15 97.4952C1802.42 97.4952 1793.49 100.175 1786.34 104.641C1780.08 109.107 1776.51 115.359 1776.51 123.398C1776.51 129.651 1778.3 134.117 1782.76 138.583C1786.34 142.155 1791.7 145.728 1797.96 148.408C1804.21 151.088 1812.26 153.767 1822.98 156.447C1836.38 160.02 1847.11 163.592 1855.15 167.165C1863.19 170.738 1870.34 176.097 1876.6 183.243C1882.85 190.389 1885.53 199.321 1885.53 210.932C1885.53 220.757 1882.85 230.583 1877.49 238.622C1872.13 246.66 1864.09 252.913 1853.36 257.379C1842.64 261.845 1831.02 264.525 1817.62 264.525C1803.32 264.525 1790.81 261.845 1780.08 256.486Z" fill="white"/>
<path d="M383.324 157.339L318.982 221.65L162.595 157.339L318.982 93.0282L383.324 157.339ZM470.901 157.339L333.281 19.7854L0.846191 157.339L333.281 294.892L470.901 157.339Z" fill="url(#paint0_linear_36_15)"/>
<defs>
<linearGradient id="paint0_linear_36_15" x1="0.713039" y1="157.539" x2="470.529" y2="157.539" gradientUnits="userSpaceOnUse">
<stop stop-color="#17C0EA"/>
<stop offset="0.4479" stop-color="#AF47FF"/>
<stop offset="1" stop-color="#FF4A11"/>
</linearGradient>
</defs>
</svg>
