<svg width="1343" height="1129" viewBox="0 0 1343 1129" fill="none" xmlns="http://www.w3.org/2000/svg">
<path d="M116.542 68.7768C128.16 68.7768 139.777 71.4564 151.395 75.9224C162.118 80.3884 171.948 87.5341 179.991 97.3593C196.97 116.117 205.013 139.34 205.013 167.922C205.013 195.612 196.97 219.728 179.991 238.486C171.948 247.418 163.012 254.563 151.395 259.923C140.671 264.389 129.053 267.068 116.542 267.068C94.2014 267.068 76.3286 259.923 62.924 244.738V261.709H0.369141V0H62.0306V92.0001C76.3288 76.8156 93.3078 68.7768 116.542 68.7768ZM74.5415 196.505C82.5843 203.651 92.4142 207.223 103.138 207.223C113.862 207.223 123.692 203.651 131.734 196.505C135.309 192.932 137.99 187.573 139.777 183.107C141.564 177.748 142.458 172.389 142.458 167.029C142.458 161.67 141.564 156.311 139.777 150.952C137.99 145.592 135.309 141.126 131.734 137.554C123.692 130.408 113.862 126.835 103.138 126.835C92.4142 126.835 82.5843 130.408 74.5415 137.554C70.9669 141.126 68.2861 146.486 66.4988 150.952C64.7115 156.311 63.8177 161.67 63.8177 167.029C63.8177 172.389 64.7115 177.748 66.4988 183.107C67.3924 188.466 70.0733 192.932 74.5415 196.505Z" fill="#292931"/>
<path d="M349.781 74.1348H412.336V259.921H349.781V241.164C338.164 257.242 321.184 265.281 297.95 265.281C289.013 265.281 279.183 263.494 271.141 259.921C262.204 256.349 255.055 250.989 248.8 243.844C236.289 230.446 229.14 209.902 229.14 184.892V74.1348H291.695V177.747C291.695 181.319 291.694 185.785 293.482 189.358C294.375 192.931 297.056 196.504 299.737 199.183C302.418 201.863 305.993 203.649 309.568 204.543C313.142 205.436 316.716 206.329 320.291 206.329C324.759 206.329 328.334 206.329 332.802 204.543C336.377 202.756 339.951 200.97 343.526 197.397C348.888 190.251 352.462 181.319 351.568 172.387V74.1348H349.781Z" fill="#292931"/>
<path d="M633.066 260.816H563.362L509.744 181.321V260.816H447.189V0H509.744V152.738L558.001 75.0292H629.492L566.937 167.922L633.066 260.816Z" fill="#292931"/>
<path d="M710.814 100.039V209.903C710.814 218.835 712.602 225.088 716.176 228.661C719.751 232.233 726.899 234.02 735.836 234.02H758.177V259.923H730.474C713.495 259.923 700.091 256.35 692.048 248.311C683.111 240.272 679.537 227.767 679.537 209.01V100.039H655.408V75.0293H679.537V27.6895H710.814V74.1361H759.071V99.1458H710.814V100.039Z" fill="#292931"/>
<path d="M851.113 80.3891C860.943 74.1366 873.454 71.457 887.752 71.457V103.612H879.71C844.858 103.612 827.879 122.37 827.879 159.884V260.816H796.601V75.0299H827.879V105.399C833.241 93.7872 841.283 85.7483 851.113 80.3891Z" fill="#292931"/>
<path d="M915.457 38.4075C910.989 33.9415 909.202 29.4755 909.202 23.223C909.202 16.9706 910.989 12.5046 915.457 8.03856C919.925 3.57254 924.394 1.78613 930.649 1.78613C936.011 1.78613 941.373 3.57254 944.947 8.03856C948.522 12.5046 951.203 16.9706 951.203 23.223C951.203 29.4755 949.416 33.9415 944.947 38.4075C941.373 42.8735 936.011 44.66 930.649 44.66C924.394 44.66 919.925 41.9803 915.457 38.4075ZM945.841 75.0289V260.816H914.563V75.0289H945.841Z" fill="#292931"/>
<path d="M1047.71 82.1755C1060.23 75.0298 1073.63 71.457 1089.72 71.457C1105.8 71.457 1120.99 75.0299 1134.4 83.0687C1147.8 91.1075 1158.53 101.826 1166.57 116.117C1174.61 130.409 1178.19 147.379 1178.19 166.137C1178.19 184.894 1174.61 201.865 1166.57 216.156C1158.53 230.448 1148.7 242.059 1134.4 250.098C1120.99 258.137 1105.8 262.603 1089.72 262.603C1073.63 262.603 1060.23 259.03 1047.71 251.884C1035.2 244.739 1026.27 235.807 1020.01 225.088V347.457H988.735V75.0299H1020.01V108.972C1026.27 98.2532 1035.2 89.3211 1047.71 82.1755ZM1137.97 130.409C1132.61 119.69 1124.57 111.651 1114.74 106.292C1104.91 100.933 1094.18 98.2532 1082.57 98.2532C1070.95 98.2532 1061.12 100.933 1051.29 106.292C1041.46 111.651 1034.31 119.69 1028.05 130.409C1022.69 141.127 1019.12 152.739 1019.12 167.03C1019.12 181.321 1021.8 192.933 1028.05 203.651C1033.42 214.37 1041.46 222.409 1051.29 227.768C1061.12 233.127 1070.95 235.807 1082.57 235.807C1094.18 235.807 1104.91 233.127 1114.74 227.768C1124.57 222.409 1131.72 214.37 1137.97 203.651C1143.33 192.933 1146.02 180.428 1146.02 166.137C1146.02 152.739 1143.33 141.127 1137.97 130.409Z" fill="#292931"/>
<path d="M1237.17 256.35C1225.55 251.884 1216.61 244.739 1210.36 235.807C1204.1 226.875 1200.53 217.049 1199.63 205.438H1231.81C1232.7 214.37 1237.17 222.409 1245.21 227.768C1253.25 234.02 1263.08 236.7 1275.59 236.7C1287.21 236.7 1297.04 234.02 1303.3 228.661C1310.45 223.302 1313.13 217.049 1313.13 209.011C1313.13 200.972 1309.55 194.719 1302.4 191.146C1295.25 187.574 1283.64 183.108 1268.44 179.535C1255.04 175.962 1243.42 172.389 1234.49 168.816C1225.55 165.244 1218.4 159.884 1212.15 151.845C1205.89 144.7 1203.21 134.875 1203.21 123.263C1203.21 113.438 1205.89 105.399 1211.25 97.36C1216.61 89.3211 1224.66 83.0687 1235.38 78.6027C1246.1 74.1366 1257.72 71.457 1271.13 71.457C1291.68 71.457 1308.66 76.8163 1321.17 86.6415C1333.68 97.36 1340.83 111.651 1341.72 129.515H1310.45C1309.55 119.69 1305.98 111.651 1298.83 106.292C1291.68 100.04 1281.85 97.36 1270.23 97.36C1259.51 97.36 1250.57 100.04 1243.42 104.506C1237.17 108.972 1233.59 115.224 1233.59 123.263C1233.59 129.515 1235.38 133.981 1239.85 138.447C1243.42 142.02 1248.78 145.593 1255.04 148.273C1261.3 150.952 1269.34 153.632 1280.06 156.311C1293.47 159.884 1304.19 163.457 1312.23 167.03C1320.28 170.603 1327.43 175.962 1333.68 183.108C1339.94 190.253 1342.62 199.185 1342.62 210.797C1342.62 220.622 1339.94 230.447 1334.57 238.486C1329.21 246.525 1321.17 252.778 1310.45 257.244C1299.72 261.71 1288.11 264.389 1274.7 264.389C1261.3 263.496 1248.78 260.816 1237.17 256.35Z" fill="#292931"/>
<path d="M672.387 543.961L771.581 642.214L672.387 880.699L573.193 642.214L672.387 543.961ZM672.387 410.874L461.488 620.777L672.387 1128.12L883.286 620.777L672.387 410.874Z" fill="url(#paint0_linear_36_42)"/>
<defs>
<linearGradient id="paint0_linear_36_42" x1="672.294" y1="411.254" x2="672.294" y2="1128.45" gradientUnits="userSpaceOnUse">
<stop stop-color="#17C0EA"/>
<stop offset="0.4479" stop-color="#AF47FF"/>
<stop offset="1" stop-color="#FF4A11"/>
</linearGradient>
</defs>
</svg>
