<svg width="72" height="90" viewBox="0 0 72 90" fill="none" xmlns="http://www.w3.org/2000/svg">
<path d="M56.365 31.4667V6.2981C56.365 4.6278 55.7088 3.02582 54.5412 1.84471C53.3733 0.663568 51.7896 0 50.1381 0H25.254L56.365 31.4667Z" fill="url(#paint0_linear_252_131)"/>
<path d="M56.365 10.4893V35.6579C56.365 37.3282 55.7088 38.9302 54.5412 40.1114C53.3733 41.2924 51.7896 41.9559 50.1381 41.9559H25.254L56.365 10.4893Z" fill="url(#paint1_linear_252_131)"/>
<path d="M14.8837 10.4893V35.6579C14.8837 37.3282 15.5397 38.9302 16.7075 40.1114C17.8753 41.2924 19.4592 41.9559 21.1106 41.9559H45.9946L14.8837 10.4893Z" fill="url(#paint2_linear_252_131)"/>
<path d="M14.8837 31.4667V6.2981C14.8837 4.6278 15.5397 3.02582 16.7075 1.84471C17.8753 0.663568 19.4592 0 21.1106 0H25.2541L35.6245 10.4889L14.8837 31.4667Z" fill="url(#paint3_linear_252_131)"/>
<path d="M12.7446 57.7396C14.0592 57.7187 15.3621 57.9911 16.5605 58.5379C17.7587 59.085 18.823 59.8925 19.6775 60.9032C21.5369 63.0058 22.4666 65.6341 22.4666 68.7879C22.4666 71.9418 21.5369 74.5718 19.6775 76.6775C18.8245 77.6909 17.7609 78.5011 16.5625 79.0504C15.364 79.5999 14.0604 79.8747 12.7446 79.8555C10.232 79.8555 8.27714 79.0163 6.86577 77.3431V79.272H0V49.9561H6.86097V60.2521C8.29157 58.5788 10.232 57.7396 12.7446 57.7396ZM8.06732 72.0961C8.92034 72.9024 10.0442 73.3507 11.2119 73.3507C12.3793 73.3507 13.5032 72.9024 14.3562 72.0961C14.7641 71.6534 15.0804 71.1326 15.2869 70.5646C15.4931 69.9964 15.5852 69.3924 15.5578 68.7879C15.5847 68.1842 15.4922 67.581 15.2859 67.0137C15.0795 66.4467 14.7636 65.9267 14.3562 65.4845C13.5032 64.6784 12.3793 64.2298 11.2119 64.2298C10.0442 64.2298 8.92034 64.6784 8.06732 65.4845C7.65919 65.9264 7.3424 66.446 7.13521 67.0132C6.92802 67.5805 6.83501 68.1837 6.86097 68.7879C6.83429 69.3929 6.92706 69.9969 7.13425 70.5651C7.34144 71.1331 7.65871 71.6536 8.06732 72.0961Z" fill="white"/>
<path d="M38.5635 58.3281H45.4341V79.2529H38.5635V77.16C37.3237 78.9571 35.4071 79.8556 32.8132 79.8556C31.7881 79.8887 30.7678 79.6983 29.8217 79.2971C28.8755 78.896 28.0258 78.2938 27.3302 77.5312C25.9092 75.9817 25.199 73.7568 25.199 70.8569V58.3281H32.0695V69.96C32.0369 70.409 32.0953 70.8603 32.2412 71.2857C32.3871 71.7111 32.6176 72.1018 32.9183 72.4338C33.2201 72.7179 33.5754 72.938 33.9626 73.0813C34.3498 73.2246 34.7615 73.2881 35.1735 73.2681C35.6348 73.298 36.0967 73.2273 36.5286 73.0609C36.9606 72.8945 37.3521 72.6364 37.6766 72.3037C38.3147 71.509 38.6315 70.4993 38.5635 69.4777V58.3281Z" fill="white"/>
<path d="M69.8509 79.2528H62.1699L56.2766 70.3408V79.2528H49.4058V49.9561H56.2766V67.076L61.612 58.328H69.5601L62.6085 68.7879L69.8509 79.2528Z" fill="white"/>
<path d="M0.835861 84.9361V88.9561H2.16786C3.57786 88.9561 4.39386 88.0801 4.39386 86.9461C4.39386 85.8061 3.57786 84.9361 2.16786 84.9361H0.835861ZM1.30986 88.5241V85.3621H2.16186C3.28986 85.3621 3.91386 86.0521 3.91386 86.9461C3.91386 87.8341 3.28986 88.5241 2.16186 88.5241H1.30986Z" fill="white"/>
<path d="M7.13783 84.8581C5.96783 84.8581 5.05583 85.7821 5.05583 86.9461C5.05583 88.1161 5.96783 89.0341 7.13783 89.0341C8.30183 89.0341 9.21383 88.1161 9.21383 86.9461C9.21383 85.7821 8.30183 84.8581 7.13783 84.8581ZM7.13783 88.5841C6.23783 88.5841 5.53583 87.8761 5.53583 86.9461C5.53583 86.0221 6.23783 85.3021 7.13783 85.3021C8.03183 85.3021 8.73383 86.0221 8.73383 86.9461C8.73383 87.8761 8.03183 88.5841 7.13783 88.5841Z" fill="white"/>
<path d="M13.5802 84.9361H13.1062V88.1641L10.4782 84.9361H10.0702V88.9561H10.5442V85.7641L13.1722 88.9561H13.5802V84.9361Z" fill="white"/>
<path d="M14.7428 86.5141L15.3248 84.9481V84.9361H14.7848L14.3888 86.5141H14.7428Z" fill="white"/>
<path d="M19.33 85.3621V84.9361H15.868V85.3621H17.362V88.9561H17.842V85.3621H19.33Z" fill="white"/>
<path d="M23.4095 88.5901C22.5095 88.5901 21.8015 87.8701 21.8015 86.9461C21.8015 86.0161 22.5095 85.3021 23.4095 85.3021C24.1055 85.3021 24.6635 85.6741 24.8675 86.3221L25.3235 86.1901C25.0775 85.3801 24.3335 84.8581 23.4095 84.8581C22.2395 84.8581 21.3215 85.7761 21.3215 86.9461C21.3215 88.1161 22.2395 89.0341 23.4095 89.0341C24.3335 89.0341 25.0775 88.5121 25.3235 87.6721L24.8675 87.5641C24.6575 88.2241 24.1055 88.5901 23.4095 88.5901Z" fill="white"/>
<path d="M29.648 88.9561L27.848 84.9361H27.41L25.61 88.9561H26.12L26.57 87.9361H28.688L29.1381 88.9561H29.648ZM28.502 87.5101H26.756L27.632 85.5241L28.502 87.5101Z" fill="white"/>
<path d="M33.7482 84.9361H33.2742V88.1641L30.6462 84.9361H30.2382V88.9561H30.7122V85.7641L33.3402 88.9561H33.7482V84.9361Z" fill="white"/>
<path d="M36.6868 88.5901C35.7868 88.5901 35.0788 87.8701 35.0788 86.9461C35.0788 86.0161 35.7868 85.3021 36.6868 85.3021C37.3828 85.3021 37.9408 85.6741 38.1448 86.3221L38.6008 86.1901C38.3548 85.3801 37.6108 84.8581 36.6868 84.8581C35.5168 84.8581 34.5988 85.7761 34.5988 86.9461C34.5988 88.1161 35.5168 89.0341 36.6868 89.0341C37.6108 89.0341 38.3548 88.5121 38.6008 87.6721L38.1448 87.5641C37.9348 88.2241 37.3828 88.5901 36.6868 88.5901Z" fill="white"/>
<path d="M42.3949 88.5241H39.9349V87.1501H42.2149V86.7241H39.9349V85.3621H42.3889V84.9361H39.4609V88.9561H42.3949V88.5241Z" fill="white"/>
<path d="M46.0592 88.5241H43.7552V84.9361H43.2812V88.9561H46.0592V88.5241Z" fill="white"/>
<path d="M46.8808 88.3681C46.7008 88.3681 46.5688 88.5121 46.5688 88.6741C46.5688 88.8421 46.7008 88.9741 46.8808 88.9741C47.0608 88.9741 47.1928 88.8421 47.1928 88.6741C47.1928 88.5121 47.0608 88.3681 46.8808 88.3681Z" fill="white"/>
<path d="M52.8751 88.9561L51.3211 87.2341H51.3931C52.1791 87.2341 52.7071 86.7721 52.7071 86.0821C52.7071 85.3921 52.1791 84.9361 51.3931 84.9361H49.5331V88.9561H50.0071V87.2341H50.7451L52.2811 88.9561H52.8751ZM50.0071 86.8021V85.3621H51.3931C51.8971 85.3621 52.2331 85.6501 52.2331 86.0821C52.2331 86.5141 51.8971 86.8021 51.3931 86.8021H50.0071Z" fill="white"/>
<path d="M56.4867 88.5241H54.0267V87.1501H56.3067V86.7241H54.0267V85.3621H56.4807V84.9361H53.5527V88.9561H56.4867V88.5241Z" fill="white"/>
<path d="M58.711 84.8581C57.853 84.8581 57.283 85.3201 57.283 86.0101C57.283 86.6521 57.733 86.9221 58.249 87.0361L59.155 87.2341C59.605 87.3361 59.809 87.4861 59.809 87.8641C59.809 88.3081 59.443 88.6141 58.831 88.6141C58.207 88.6141 57.745 88.2961 57.655 87.7321L57.157 87.8341C57.253 88.5961 57.937 89.0341 58.789 89.0341C59.689 89.0341 60.283 88.5721 60.283 87.8401C60.283 87.1981 59.827 86.9161 59.269 86.7961L58.393 86.5981C58.015 86.5201 57.787 86.3581 57.787 85.9981C57.787 85.5661 58.159 85.2721 58.699 85.2721C59.251 85.2721 59.653 85.5841 59.743 86.0701L60.217 85.9621C60.079 85.3021 59.515 84.8581 58.711 84.8581Z" fill="white"/>
<path d="M64.0687 88.5241H61.6087V87.1501H63.8887V86.7241H61.6087V85.3621H64.0627V84.9361H61.1347V88.9561H64.0687V88.5241Z" fill="white"/>
<path d="M67.733 88.5241H65.429V84.9361H64.955V88.9561H67.733V88.5241Z" fill="white"/>
<path d="M71.2486 88.5241H68.9446V84.9361H68.4706V88.9561H71.2486V88.5241Z" fill="white"/>
<defs>
<linearGradient id="paint0_linear_252_131" x1="40.8118" y1="31.4667" x2="40.8118" y2="0" gradientUnits="userSpaceOnUse">
<stop stop-color="#A736E7"/>
<stop offset="1" stop-color="#5500E7"/>
</linearGradient>
<linearGradient id="paint1_linear_252_131" x1="57.1851" y1="10.9667" x2="35.5696" y2="47.9787" gradientUnits="userSpaceOnUse">
<stop stop-color="#A4DC66"/>
<stop offset="1" stop-color="#43DC66"/>
</linearGradient>
<linearGradient id="paint2_linear_252_131" x1="33.288" y1="21.2338" x2="20.7419" y2="42.715" gradientUnits="userSpaceOnUse">
<stop stop-color="#05F3FF"/>
<stop offset="1" stop-color="#0068FF"/>
</linearGradient>
<linearGradient id="paint3_linear_252_131" x1="28.4866" y1="1.8856" x2="12.1479" y2="29.8688" gradientUnits="userSpaceOnUse">
<stop stop-color="#A4DC66"/>
<stop offset="1" stop-color="#43DC66"/>
</linearGradient>
</defs>
</svg>
