<svg width="128" height="128" viewBox="0 0 128 128" fill="none" xmlns="http://www.w3.org/2000/svg">
<rect width="128" height="128" fill="#292931"/>
<path d="M106 85.0015V34.6134C106 31.2681 104.671 28.0599 102.306 25.6944C99.9402 23.3289 96.7319 22 93.3866 22H42.9985L106 85.0015Z" fill="url(#paint0_linear_381_2947)"/>
<path d="M106 43V93.3881C106 96.7334 104.671 99.9417 102.306 102.307C99.9402 104.673 96.7319 106.002 93.3866 106.002H42.9985L106 43Z" fill="url(#paint1_linear_381_2947)"/>
<path d="M22 43V93.3881C22 96.7334 23.3289 99.9417 25.6944 102.307C28.0599 104.673 31.2681 106.002 34.6134 106.002H85.0015L22 43Z" fill="url(#paint2_linear_381_2947)"/>
<path d="M22 85.0015V34.6134C22 31.2681 23.3289 28.0599 25.6944 25.6944C28.0599 23.3289 31.2681 22 34.6134 22H43.0005L64.001 43.0005L22 85.0015Z" fill="url(#paint3_linear_381_2947)"/>
<defs>
<linearGradient id="paint0_linear_381_2947" x1="74.4993" y1="85.0015" x2="74.4993" y2="22" gradientUnits="userSpaceOnUse">
<stop stop-color="#A736E7"/>
<stop offset="1" stop-color="#5500E7"/>
</linearGradient>
<linearGradient id="paint1_linear_381_2947" x1="107.654" y1="43.9581" x2="64.6291" y2="118.484" gradientUnits="userSpaceOnUse">
<stop stop-color="#A4DC66"/>
<stop offset="1" stop-color="#43DC66"/>
</linearGradient>
<linearGradient id="paint2_linear_381_2947" x1="59.2628" y1="64.5124" x2="34.2984" y2="107.773" gradientUnits="userSpaceOnUse">
<stop stop-color="#05F3FF"/>
<stop offset="1" stop-color="#0068FF"/>
</linearGradient>
<linearGradient id="paint3_linear_381_2947" x1="49.55" y1="25.7801" x2="17.0124" y2="82.1271" gradientUnits="userSpaceOnUse">
<stop stop-color="#A4DC66"/>
<stop offset="1" stop-color="#43DC66"/>
</linearGradient>
</defs>
</svg>
