<svg width="851" height="493" viewBox="0 0 851 493" fill="none" xmlns="http://www.w3.org/2000/svg">
<path d="M458.938 87.6952C466.914 87.6952 474.89 89.535 482.866 92.6013C490.229 95.6675 496.978 100.574 502.5 107.319C514.158 120.198 519.68 136.142 519.68 155.767C519.68 174.777 514.158 191.335 502.5 204.214C496.978 210.346 490.843 215.252 482.866 218.932C475.504 221.998 467.528 223.838 458.938 223.838C443.599 223.838 431.328 218.932 422.125 208.506V220.158H379.176V39.8613H421.511V103.027C430.714 92.6013 442.985 87.6952 458.938 87.6952ZM429.487 175.391C435.009 180.297 441.758 182.75 449.121 182.75C456.484 182.75 463.233 180.297 468.755 175.391C471.209 172.938 473.05 169.258 474.277 166.192C475.504 162.512 476.117 158.833 476.117 155.153C476.117 151.474 475.504 147.794 474.277 144.115C473.05 140.435 471.209 137.369 468.755 134.916C463.233 130.01 456.484 127.557 449.121 127.557C441.758 127.557 435.009 130.01 429.487 134.916C427.033 137.369 425.192 141.048 423.965 144.115C422.738 147.794 422.125 151.474 422.125 155.153C422.125 158.833 422.738 162.512 423.965 166.192C425.192 169.258 427.033 172.938 429.487 175.391Z" fill="#292931"/>
<path d="M619.076 91.375H662.025V218.932H619.076V206.054C611.1 217.092 599.442 222.612 583.49 222.612C577.354 222.612 570.605 221.385 565.083 218.932C558.948 216.479 554.039 212.8 549.744 207.893C541.155 198.695 536.246 184.59 536.246 167.419V91.375H579.195V162.513C579.195 164.966 579.195 168.032 580.422 170.485C581.036 172.938 582.876 175.391 584.717 177.231C586.558 179.07 589.012 180.297 591.466 180.91C593.92 181.523 596.374 182.137 598.829 182.137C601.896 182.137 604.351 182.137 607.418 180.91C609.873 179.684 612.327 178.457 614.781 176.004C618.462 171.098 620.917 164.966 620.303 158.833V91.375H619.076Z" fill="#292931"/>
<path d="M813.574 218.932H765.717L728.904 164.352V218.932H685.955V39.8613H728.904V144.728L762.036 91.3748H811.12L768.171 155.153L813.574 218.932Z" fill="#292931"/>
<path d="M417.216 321.346V396.776C417.216 402.908 418.443 407.201 420.897 409.654C423.352 412.107 428.26 413.334 434.396 413.334H449.735V431.118H430.714C419.057 431.118 409.854 428.665 404.332 423.146C398.196 417.627 395.742 409.041 395.742 396.163V321.346H379.176V304.174H395.742V272.285H417.216V304.174H450.348V321.346H417.216Z" fill="#292931"/>
<path d="M513.546 307.854C520.295 303.561 528.885 301.722 538.702 301.722V323.799H533.18C509.251 323.799 497.594 336.677 497.594 362.434V431.732H476.119V304.175H497.594V325.025C501.275 317.666 506.797 312.147 513.546 307.854Z" fill="#292931"/>
<path d="M557.72 279.031C554.652 275.965 553.425 272.899 553.425 268.606C553.425 264.313 554.652 261.247 557.72 258.18C560.787 255.114 563.855 253.888 568.15 253.888C571.831 253.888 575.513 255.114 577.967 258.18C580.421 261.247 582.262 264.313 582.262 268.606C582.262 272.899 581.035 275.965 577.967 279.031C575.513 282.097 571.831 283.324 568.15 283.324C563.855 283.324 560.787 282.097 557.72 279.031ZM577.967 304.175V431.732H556.493V304.175H577.967Z" fill="#292931"/>
<path d="M648.527 309.694C657.117 304.788 666.32 302.335 677.364 302.335C688.408 302.335 698.838 304.788 708.042 310.307C717.245 315.827 724.608 323.186 730.13 332.998C735.652 342.81 738.106 354.462 738.106 367.34C738.106 380.218 735.652 391.87 730.13 401.682C724.608 411.494 717.859 419.467 708.042 424.986C698.838 430.505 688.408 433.572 677.364 433.572C666.32 433.572 657.117 431.119 648.527 426.213C639.937 421.306 633.802 415.174 629.507 407.815V491.831H608.032V304.175H629.507V327.478C633.802 320.119 639.937 314.6 648.527 309.694ZM710.496 342.197C706.815 334.837 701.293 329.318 694.543 325.639C687.794 321.959 680.432 320.119 672.455 320.119C664.479 320.119 657.73 321.959 650.981 325.639C644.232 329.318 639.324 334.837 635.029 342.197C631.347 349.556 628.893 357.528 628.893 367.34C628.893 377.152 630.734 385.124 635.029 392.483C638.71 399.843 644.232 405.362 650.981 409.041C657.73 412.721 664.479 414.561 672.455 414.561C680.432 414.561 687.794 412.721 694.543 409.041C701.293 405.362 706.201 399.843 710.496 392.483C714.177 385.124 716.018 376.539 716.018 366.727C716.018 358.141 714.177 349.556 710.496 342.197Z" fill="#292931"/>
<path d="M778.599 428.665C770.623 425.599 764.488 420.693 760.193 414.561C755.898 408.428 753.444 401.682 752.83 393.71H774.918C775.532 399.842 778.599 405.362 784.121 409.041C789.643 413.334 796.392 415.174 804.982 415.174C812.958 415.174 819.708 413.334 824.002 409.655C828.911 405.975 830.751 401.682 830.751 396.163C830.751 390.644 828.297 386.351 823.389 383.898C818.48 381.445 810.504 378.379 800.074 375.926C790.87 373.473 782.894 371.019 776.759 368.566C770.623 366.113 765.715 362.434 761.42 356.915C757.125 352.009 755.284 345.263 755.284 337.29C755.284 330.545 757.125 325.025 760.806 319.506C764.488 313.987 770.01 309.694 777.372 306.628C784.735 303.561 792.711 301.722 801.914 301.722C816.026 301.722 827.684 305.401 836.274 312.147C844.863 319.506 849.772 329.318 850.385 341.583H828.911C828.297 334.837 825.843 329.318 820.935 325.639C816.026 321.346 809.277 319.506 801.301 319.506C793.938 319.506 787.803 321.346 782.894 324.412C778.599 327.478 776.145 331.771 776.145 337.29C776.145 341.583 777.372 344.65 780.44 347.716C782.894 350.169 786.576 352.622 790.87 354.462C795.165 356.301 800.687 358.141 808.05 359.981C817.253 362.434 824.616 364.887 830.138 367.34C835.66 369.793 840.568 373.473 844.863 378.379C849.158 383.285 850.999 389.417 850.999 397.389C850.999 404.135 849.158 410.881 845.477 416.4C841.796 421.92 836.274 426.212 828.911 429.279C821.548 432.345 813.572 434.185 804.369 434.185C795.165 434.185 786.576 432.345 778.599 428.665Z" fill="#292931"/>
<path d="M144.799 91.375L212.903 158.833L144.799 322.572L76.6943 158.833L144.799 91.375ZM144.799 0L0 144.115L144.799 492.444L289.598 144.115L144.799 0Z" fill="url(#paint0_linear_38_2)"/>
<defs>
<linearGradient id="paint0_linear_38_2" x1="144.542" y1="0" x2="144.542" y2="492.41" gradientUnits="userSpaceOnUse">
<stop stop-color="#17C0EA"/>
<stop offset="0.4479" stop-color="#AF47FF"/>
<stop offset="1" stop-color="#FF4A11"/>
</linearGradient>
</defs>
</svg>
