<svg width="1877" height="348" viewBox="0 0 1877 348" fill="none" xmlns="http://www.w3.org/2000/svg">
<path d="M116.444 69.6799C128.061 69.6799 139.679 72.3596 151.296 76.8256C162.02 81.2916 171.85 88.4372 179.892 98.2625C196.872 117.02 204.914 140.243 204.914 168.826C204.914 196.515 196.872 220.632 179.892 239.389C171.85 248.321 162.913 255.466 151.296 260.826C140.572 265.292 128.955 267.971 116.444 267.971C94.1028 267.971 76.23 260.826 62.8254 245.641V262.612H0.270508V1.79639H61.9318V93.7964C76.2301 76.8255 94.1028 69.6799 116.444 69.6799ZM74.4427 197.408C82.4855 204.554 92.3155 208.127 103.039 208.127C113.763 208.127 123.593 204.554 131.636 197.408C135.21 193.835 137.891 188.476 139.679 184.01C141.466 178.651 142.359 173.292 142.359 167.932C142.359 162.573 141.466 157.214 139.679 151.855C137.891 146.496 135.21 142.029 131.636 138.457C123.593 131.311 113.763 127.738 103.039 127.738C92.3155 127.738 82.4855 131.311 74.4427 138.457C70.8682 142.029 68.1873 147.389 66.4 151.855C64.6127 157.214 63.7191 162.573 63.7191 167.932C63.7191 173.292 64.6127 178.651 66.4 184.01C67.2937 188.476 70.8682 192.942 74.4427 197.408Z" fill="white"/>
<path d="M349.683 75.0397H412.237V260.826H349.683V242.069C338.065 258.147 321.086 266.185 297.851 266.185C288.915 266.185 279.085 264.399 271.042 260.826C262.106 257.253 254.957 251.894 248.701 244.749C236.19 231.351 229.041 210.807 229.041 185.797V74.1465H291.596V177.758C291.596 181.331 291.596 185.797 293.383 189.37C294.277 192.943 296.958 196.516 299.639 199.195C302.32 201.875 305.894 203.661 309.469 204.554C313.043 205.448 316.618 206.341 320.192 206.341C324.661 206.341 328.235 206.341 332.703 204.554C336.278 202.768 339.853 200.982 343.427 197.409C348.789 190.263 352.363 181.331 351.47 172.399V75.0397H349.683Z" fill="white"/>
<path d="M632.969 260.826H563.265L509.647 181.33V260.826H447.092V0.00976562H509.647V152.748L557.903 75.039H629.394L566.84 167.932L632.969 260.826Z" fill="white"/>
<path d="M710.714 100.049V209.913C710.714 218.845 712.501 225.098 716.076 228.671C719.65 232.244 726.799 234.03 735.736 234.03H758.077V259.933H730.374C713.395 259.933 699.99 256.36 691.947 248.321C683.011 240.282 679.437 227.778 679.437 209.02V99.1561H655.308V74.1463H679.437V27.6997H710.714V74.1463H758.971V99.1561H710.714V100.049Z" fill="white"/>
<path d="M851.018 80.3991C860.848 74.1467 873.359 71.467 887.657 71.467V103.622H879.614C844.762 103.622 827.783 122.38 827.783 159.894V260.826H796.505V75.0399H827.783V105.409C833.145 94.6904 841.187 85.7583 851.018 80.3991Z" fill="white"/>
<path d="M915.358 38.4178C910.889 33.9517 909.102 29.4857 909.102 23.2333C909.102 16.9809 910.889 12.5148 915.358 8.04879C919.826 3.58277 924.294 1.79639 930.549 1.79639C935.911 1.79639 941.273 3.58277 944.848 8.04879C948.422 12.5148 951.103 16.9809 951.103 23.2333C951.103 29.4857 949.316 33.9517 944.848 38.4178C941.273 42.8838 935.911 44.6702 930.549 44.6702C924.294 44.6702 919.826 42.8838 915.358 38.4178ZM945.741 75.0392V260.826H914.464V75.0392H945.741Z" fill="white"/>
<path d="M1047.62 82.1855C1060.13 75.0398 1073.53 71.467 1089.62 71.467C1105.7 71.467 1120.9 75.0399 1134.3 83.0787C1147.7 91.1176 1158.43 101.836 1166.47 116.127C1174.51 130.419 1178.09 147.389 1178.09 166.147C1178.09 184.904 1174.51 201.875 1166.47 216.166C1158.43 230.457 1148.6 242.069 1134.3 250.108C1120.9 258.147 1105.7 262.613 1089.62 262.613C1073.53 262.613 1060.13 259.04 1047.62 251.894C1035.11 244.749 1026.17 235.817 1019.91 225.098V347.467H988.636V73.2534H1019.91V107.195C1026.17 98.2632 1035.11 89.3311 1047.62 82.1855ZM1137.87 130.419C1132.51 119.7 1124.47 111.661 1114.64 106.302C1104.81 100.943 1094.09 98.2632 1082.47 98.2632C1070.85 98.2632 1061.02 100.943 1051.19 106.302C1041.36 111.661 1034.21 119.7 1027.96 130.419C1022.59 141.137 1019.02 152.749 1019.02 167.04C1019.02 181.331 1021.7 192.943 1027.96 203.661C1033.32 214.38 1041.36 222.419 1051.19 227.778C1061.02 233.137 1070.85 235.817 1082.47 235.817C1094.09 235.817 1104.81 233.137 1114.64 227.778C1124.47 222.419 1131.62 214.38 1137.87 203.661C1143.24 192.943 1145.92 180.438 1145.92 166.147C1145.92 152.749 1143.24 141.137 1137.87 130.419Z" fill="white"/>
<path d="M1237.07 256.36C1225.45 251.894 1216.52 244.749 1210.26 235.817C1204 226.885 1200.43 217.059 1199.54 205.448H1231.71C1232.6 214.38 1237.07 222.419 1245.11 227.778C1253.15 234.03 1262.98 236.71 1275.5 236.71C1287.11 236.71 1296.94 234.03 1303.2 228.671C1310.35 223.312 1313.03 217.06 1313.03 209.021C1313.03 200.982 1309.45 194.729 1302.3 191.157C1295.16 187.584 1283.54 183.118 1268.35 179.545C1254.94 175.972 1243.32 172.399 1234.39 168.826C1225.45 165.254 1218.3 159.894 1212.05 151.855C1205.79 144.71 1203.11 134.885 1203.11 123.273C1203.11 113.448 1205.79 105.409 1211.15 97.3701C1216.52 89.3312 1224.56 83.0787 1235.28 78.6127C1246.01 74.1467 1257.62 71.467 1271.03 71.467C1291.58 71.467 1308.56 76.8262 1321.07 86.6515C1333.58 97.37 1340.73 111.661 1341.62 129.525H1310.35C1309.45 119.7 1305.88 111.661 1298.73 106.302C1291.58 100.05 1281.75 97.3701 1270.13 97.3701C1259.41 97.3701 1250.47 100.05 1243.32 104.516C1237.07 108.982 1233.49 115.234 1233.49 123.273C1233.49 129.525 1235.28 133.991 1239.75 138.457C1243.32 142.03 1248.69 145.603 1254.94 148.283C1261.2 150.962 1269.24 153.642 1279.96 156.321C1293.37 159.894 1304.09 163.467 1312.13 167.04C1320.18 170.613 1327.33 175.972 1333.58 183.118C1339.84 190.263 1342.52 199.195 1342.52 210.807C1342.52 220.632 1339.84 230.457 1334.48 238.496C1329.11 246.535 1321.07 252.788 1310.35 257.254C1299.62 261.72 1288.01 264.399 1274.6 264.399C1261.2 263.506 1248.69 261.72 1237.07 256.36Z" fill="white"/>
<path d="M1493.54 156.32L1557.89 92.0096L1714.27 156.32L1557.89 221.524L1493.54 156.32ZM1405.97 156.32L1543.59 293.874L1876.02 156.32L1543.59 18.7668L1405.97 156.32Z" fill="url(#paint0_linear_36_28)"/>
<defs>
<linearGradient id="paint0_linear_36_28" x1="1876.17" y1="156.547" x2="1406.35" y2="156.547" gradientUnits="userSpaceOnUse">
<stop stop-color="#17C0EA"/>
<stop offset="0.4479" stop-color="#AF47FF"/>
<stop offset="1" stop-color="#FF4A11"/>
</linearGradient>
</defs>
</svg>
