<?xml version="1.0" encoding="UTF-8"?>
<svg id="Layer_1" data-name="Layer 1" xmlns="http://www.w3.org/2000/svg" viewBox="0 0 1080 466">
  <defs>
    <style>
      .cls-1 {
        fill: #ca3f2c;
      }

      .cls-1, .cls-2 {
        stroke-width: 0px;
      }
    </style>
  </defs>
  <path class="cls-1" d="m260.35,118.37V42.13H107.66v381.74h305.26V117.98c-51.14,0-102.05,0-152.97,0,0,25.37,0,50.75,0,77.27h75.99v151.64h-151.46V118.37h75.85Z"/>
  <g>
    <path class="cls-2" d="m504.97,361.75V118.11h34.8v69.61h69.61v34.8h-69.61v104.41h69.61v34.8h-104.41Zm139.22-34.8h-34.8v-104.41h34.8v104.41Z"/>
    <path class="cls-2" d="m703.85,326.94h-34.8v-139.22h34.8v139.22Zm0,34.8v-34.8h69.61v-139.22h34.8v174.02h-104.41Z"/>
    <path class="cls-2" d="m867.92,118.11v139.22h34.8v34.81h-34.8v69.61h-34.8V118.11h34.8Zm34.8,139.22v-34.8h34.81v34.8h-34.81Zm34.81,69.61h-34.81v-34.8h34.81v34.8Zm0-139.22h34.8v34.8h-34.8v-34.8Zm0,174.02v-34.8h34.8v34.8h-34.8Z"/>
  </g>
  <g>
    <path class="cls-2" d="m509.42,397.11v8.92h8.92v4.46h-8.92v13.37h-4.46v-31.2h13.37v4.46h-8.92Zm8.92,0h4.46v8.92h-4.46v-8.92Z"/>
    <path class="cls-2" d="m572.46,406.02h8.92v4.46h-8.92v13.37h-4.46v-31.2h13.37v4.46h-8.92v8.92Zm13.37,0h-4.46v-8.92h4.46v8.92Zm-4.46,4.46h4.46v13.37h-4.46v-13.37Z"/>
    <path class="cls-2" d="m627.22,397.11h4.46v22.29h-4.46v-22.29Zm4.46-4.46h13.37v4.46h-13.37v-4.46Zm0,26.75h13.37v4.46h-13.37v-4.46Zm13.37-22.29h4.46v22.29h-4.46v-22.29Z"/>
    <path class="cls-2" d="m715.73,392.65v4.46h-8.91v26.75h-4.46v-26.75h-8.91v-4.46h22.29Z"/>
    <path class="cls-2" d="m755.84,397.11h4.46v22.29h-4.46v-22.29Zm4.46-4.46h13.37v4.46h-13.37v-4.46Zm0,26.75h13.37v4.46h-13.37v-4.46Zm13.37-22.29h4.46v22.29h-4.46v-22.29Z"/>
    <path class="cls-2" d="m819.51,397.11h4.46v22.29h-4.46v-22.29Zm4.46-4.46h13.37v4.46h-13.37v-4.46Zm0,26.75h17.83v4.46h-17.83v-4.46Zm13.37-22.29h4.46v4.46h-4.46v-4.46Z"/>
    <path class="cls-2" d="m883.18,397.11h4.46v22.29h-4.46v-22.29Zm4.46-4.46h13.37v4.46h-13.37v-4.46Zm0,26.75h13.37v4.46h-13.37v-4.46Zm13.37-22.29h4.46v22.29h-4.46v-22.29Z"/>
    <path class="cls-2" d="m955.14,419.4h13.37v4.46h-17.83v-31.2h4.46v26.75Z"/>
  </g>
</svg>