<svg width="674" height="333" viewBox="0 0 674 333" fill="none" xmlns="http://www.w3.org/2000/svg">
<g clip-path="url(#clip0_383_4904)">
<path d="M252.583 209.621V106.15C252.583 99.2832 249.853 92.6973 244.995 87.8416C240.136 82.9858 233.547 80.2578 226.676 80.2578H123.146L252.583 209.621Z" fill="url(#paint0_linear_383_4904)"/>
<path d="M252.583 123.379V226.85C252.583 233.717 249.853 240.303 244.995 245.159C240.136 250.014 233.547 252.742 226.676 252.742H123.146L252.583 123.379Z" fill="url(#paint1_linear_383_4904)"/>
<path d="M80 123.379V226.85C80 233.717 82.7295 240.303 87.5881 245.159C92.4466 250.014 99.0363 252.742 105.907 252.742H209.437L80 123.379Z" fill="url(#paint2_linear_383_4904)"/>
<path d="M80 209.621V106.15C80 99.2832 82.7295 92.6973 87.5881 87.8416C92.4466 82.9858 99.0363 80.2578 105.907 80.2578H123.146L166.292 123.379L80 209.621Z" fill="url(#paint3_linear_383_4904)"/>
<path d="M356.41 111.999C361.879 111.913 367.3 113.033 372.286 115.281C377.271 117.53 381.699 120.85 385.254 125.005C392.99 133.649 396.858 144.454 396.858 157.42C396.858 170.386 392.99 181.198 385.254 189.855C381.705 194.021 377.28 197.352 372.294 199.61C367.308 201.869 361.884 202.999 356.41 202.92C345.956 202.92 337.823 199.47 331.951 192.591V200.521H303.386V80H331.931V122.328C337.883 115.449 345.956 111.999 356.41 111.999ZM336.95 171.02C340.499 174.335 345.175 176.178 350.033 176.178C354.89 176.178 359.566 174.335 363.115 171.02C364.812 169.2 366.128 167.059 366.987 164.724C367.845 162.388 368.228 159.905 368.114 157.42C368.226 154.938 367.841 152.458 366.983 150.126C366.124 147.795 364.81 145.657 363.115 143.839C359.566 140.525 354.89 138.681 350.033 138.681C345.175 138.681 340.499 140.525 336.95 143.839C335.252 145.656 333.934 147.792 333.072 150.124C332.21 152.456 331.823 154.936 331.931 157.42C331.82 159.907 332.206 162.39 333.068 164.726C333.93 167.061 335.25 169.201 336.95 171.02V171.02Z" fill="white"/>
<path d="M463.829 114.418H492.414V200.442H463.829V191.838C458.671 199.226 450.697 202.92 439.905 202.92C435.64 203.056 431.395 202.273 427.459 200.624C423.522 198.975 419.987 196.499 417.093 193.364C411.181 186.994 408.226 177.847 408.226 165.925V114.418H436.811V162.238C436.675 164.084 436.918 165.939 437.525 167.688C438.132 169.437 439.091 171.043 440.342 172.408C441.598 173.576 443.076 174.481 444.687 175.07C446.298 175.659 448.011 175.92 449.725 175.838C451.644 175.961 453.566 175.67 455.363 174.986C457.16 174.302 458.789 173.241 460.139 171.873C462.794 168.606 464.112 164.455 463.829 160.255V114.418Z" fill="white"/>
<path d="M594 200.442H562.043L537.524 163.804V200.442H508.938V80H537.524V150.382L559.722 114.418H592.79L563.868 157.42L594 200.442Z" fill="white"/>
<g opacity="0.75">
<path opacity="0.75" d="M304.159 229.584H318.521V232.102H306.877V239.259H317.748V241.777H306.877V249.905H319.116V252.483H304.159V229.584Z" fill="white"/>
<path opacity="0.75" d="M333.656 229.584H336.196L345.916 252.483H342.762L340.441 246.872H329.014L326.654 252.483H323.579L333.656 229.584ZM334.886 233.073L330.145 244.295H339.488L334.886 233.073Z" fill="white"/>
<path opacity="0.75" d="M362.698 233.609C362.284 232.899 361.651 232.342 360.893 232.023C360.152 231.684 359.347 231.508 358.532 231.508C357.936 231.508 357.342 231.588 356.767 231.746C356.21 231.88 355.68 232.108 355.199 232.42C354.738 232.72 354.356 233.128 354.089 233.609C353.8 234.145 353.656 234.746 353.672 235.354C353.663 235.821 353.744 236.285 353.91 236.722C354.085 237.143 354.357 237.517 354.704 237.813C355.151 238.185 355.652 238.486 356.191 238.705C356.934 239.034 357.696 239.319 358.473 239.557C359.365 239.835 360.218 240.132 361.051 240.449C361.835 240.751 362.57 241.165 363.234 241.679C363.877 242.177 364.399 242.814 364.761 243.542C365.147 244.455 365.336 245.439 365.316 246.43C365.295 247.42 365.066 248.396 364.642 249.292C364.191 250.069 363.583 250.744 362.857 251.274C362.078 251.837 361.205 252.253 360.278 252.503C358.648 252.944 356.941 253.019 355.279 252.722C354.601 252.61 353.937 252.431 353.295 252.186C352.683 251.933 352.103 251.607 351.569 251.215C351.028 250.806 350.559 250.31 350.181 249.748L352.502 247.765C352.953 248.607 353.643 249.297 354.485 249.748C355.358 250.167 356.314 250.384 357.282 250.382C357.88 250.383 358.475 250.296 359.048 250.124C359.618 249.971 360.156 249.716 360.635 249.371C361.108 249.041 361.506 248.615 361.805 248.122C362.114 247.607 362.272 247.017 362.261 246.417C362.287 245.821 362.164 245.229 361.904 244.692C361.631 244.226 361.25 243.832 360.794 243.542C360.211 243.174 359.585 242.881 358.929 242.67L356.291 241.778C355.514 241.542 354.757 241.244 354.029 240.886C353.366 240.574 352.757 240.159 352.224 239.656C351.717 239.158 351.313 238.565 351.034 237.912C350.73 237.135 350.582 236.307 350.597 235.473C350.574 234.482 350.799 233.5 351.252 232.618C351.681 231.837 352.277 231.16 352.998 230.636C353.747 230.086 354.586 229.67 355.477 229.406C357.593 228.796 359.846 228.858 361.924 229.585C363.038 230.025 364.021 230.742 364.781 231.667L362.698 233.609Z" fill="white"/>
<path opacity="0.75" d="M378.112 242.57L369.622 229.584H373.074L379.541 239.913L386.166 229.584H389.42L380.81 242.57V252.483H378.112V242.57Z" fill="white"/>
<path opacity="0.75" d="M406.678 229.584H413.641C414.573 229.585 415.503 229.678 416.418 229.862C417.272 230.04 418.091 230.361 418.838 230.813C419.54 231.254 420.131 231.851 420.564 232.558C421.032 233.356 421.266 234.27 421.238 235.195C421.277 236.392 420.89 237.565 420.147 238.506C419.388 239.406 418.37 240.05 417.231 240.349C417.921 240.408 418.594 240.596 419.215 240.905C419.833 241.204 420.391 241.614 420.861 242.114C421.335 242.611 421.706 243.198 421.952 243.839C422.211 244.516 422.338 245.236 422.329 245.96C422.387 246.99 422.148 248.015 421.642 248.914C421.136 249.814 420.383 250.55 419.473 251.036C418.576 251.528 417.604 251.87 416.596 252.047C415.55 252.244 414.487 252.343 413.422 252.344H406.618L406.678 229.584ZM409.296 239.259H413.045C413.676 239.264 414.307 239.217 414.93 239.12C415.511 239.048 416.076 238.874 416.596 238.605C417.083 238.336 417.493 237.947 417.786 237.475C418.131 236.873 418.29 236.183 418.243 235.492C418.271 234.889 418.126 234.291 417.826 233.767C417.548 233.331 417.167 232.97 416.715 232.716C416.221 232.447 415.684 232.266 415.128 232.181C414.538 232.086 413.941 232.039 413.343 232.042H409.376L409.296 239.259ZM409.296 249.905H413.879C414.545 249.9 415.21 249.827 415.862 249.687C416.484 249.562 417.081 249.334 417.628 249.013C418.151 248.721 418.589 248.298 418.897 247.784C419.247 247.234 419.42 246.591 419.393 245.94C419.41 245.249 419.246 244.566 418.917 243.958C418.62 243.433 418.197 242.99 417.687 242.669C417.156 242.33 416.563 242.101 415.942 241.995C415.289 241.861 414.624 241.794 413.958 241.797H409.296V249.905Z" fill="white"/>
<path opacity="0.75" d="M440.54 252.998C438.897 253.018 437.266 252.715 435.739 252.106C434.335 251.522 433.055 250.674 431.97 249.608C430.884 248.517 430.033 247.215 429.471 245.782C428.881 244.258 428.585 242.637 428.598 241.004C428.587 239.364 428.883 237.737 429.471 236.206C430.038 234.781 430.888 233.486 431.97 232.399C433.043 231.319 434.326 230.469 435.739 229.901C438.822 228.713 442.238 228.713 445.321 229.901C446.74 230.468 448.029 231.318 449.11 232.399C450.179 233.492 451.022 234.786 451.589 236.206C452.193 237.733 452.496 239.362 452.482 241.004C452.498 242.639 452.195 244.262 451.589 245.782C451.027 247.21 450.184 248.511 449.11 249.608C448.019 250.676 446.732 251.524 445.321 252.106C443.801 252.715 442.177 253.018 440.54 252.998V252.998ZM440.54 250.48C441.795 250.5 443.04 250.25 444.19 249.747C445.269 249.291 446.242 248.616 447.047 247.764C447.865 246.895 448.499 245.87 448.911 244.751C449.784 242.37 449.784 239.757 448.911 237.376C448.495 236.252 447.861 235.221 447.047 234.342C446.212 233.456 445.203 232.752 444.084 232.275C442.964 231.797 441.757 231.556 440.54 231.567C439.277 231.554 438.026 231.811 436.87 232.32C435.794 232.782 434.822 233.456 434.014 234.303C433.214 235.193 432.582 236.221 432.149 237.336C431.277 239.717 431.277 242.33 432.149 244.711C432.576 245.823 433.209 246.846 434.014 247.725C434.818 248.576 435.791 249.251 436.87 249.707C438.023 250.231 439.274 250.501 440.54 250.5V250.48Z" fill="white"/>
<path opacity="0.75" d="M470.354 252.998C468.717 253.018 467.092 252.715 465.573 252.106C464.161 251.524 462.875 250.676 461.784 249.608C460.71 248.511 459.867 247.21 459.304 245.782C458.699 244.262 458.395 242.639 458.412 241.004C458.397 239.362 458.701 237.733 459.304 236.206C459.872 234.786 460.715 233.492 461.784 232.399C462.864 231.318 464.154 230.468 465.573 229.901C468.656 228.713 472.071 228.713 475.154 229.901C476.568 230.469 477.85 231.319 478.923 232.399C480.005 233.486 480.856 234.781 481.423 236.206C482.02 237.734 482.316 239.363 482.296 241.004C482.318 242.638 482.022 244.261 481.423 245.782C480.861 247.215 480.01 248.517 478.923 249.608C477.838 250.674 476.559 251.522 475.154 252.106C473.628 252.715 471.997 253.018 470.354 252.998ZM470.354 250.48C471.615 250.5 472.867 250.25 474.024 249.747C475.103 249.291 476.075 248.616 476.88 247.764C477.685 246.885 478.318 245.863 478.745 244.751C479.617 242.37 479.617 239.757 478.745 237.376C478.312 236.26 477.68 235.233 476.88 234.342C476.071 233.496 475.1 232.821 474.024 232.36C472.867 231.863 471.622 231.606 470.364 231.606C469.105 231.606 467.86 231.863 466.704 232.36C465.628 232.821 464.656 233.496 463.847 234.342C463.033 235.221 462.399 236.252 461.982 237.376C461.11 239.757 461.11 242.37 461.982 244.751C462.395 245.87 463.029 246.895 463.847 247.764C464.652 248.616 465.625 249.291 466.704 249.747C467.853 250.255 469.097 250.512 470.354 250.5V250.48Z" fill="white"/>
<path opacity="0.75" d="M489.576 229.584H492.274V239.497H492.671L503.065 229.584H507.033L495.726 239.993L507.628 252.423H503.66L492.611 240.805H492.214V252.483H489.517L489.576 229.584Z" fill="white"/>
<path opacity="0.75" d="M512.806 229.584H515.523V252.483H512.806V229.584Z" fill="white"/>
<path opacity="0.75" d="M524.114 229.584H527.526L540.758 248.518V229.584H543.455V252.483H540.222L526.991 233.51V252.483H524.293L524.114 229.584Z" fill="white"/>
<path opacity="0.75" d="M571.564 250.878C570.264 251.605 568.869 252.146 567.418 252.484C565.976 252.831 564.498 253.004 563.014 253C561.334 253.026 559.664 252.73 558.095 252.127C556.66 251.582 555.351 250.753 554.246 249.689C553.142 248.612 552.276 247.315 551.707 245.882C551.096 244.33 550.793 242.673 550.815 241.005C550.794 239.32 551.111 237.649 551.747 236.088C552.361 234.661 553.259 233.373 554.385 232.301C555.543 231.248 556.889 230.421 558.353 229.863C559.886 229.284 561.514 228.994 563.153 229.01C564.628 229.003 566.094 229.231 567.498 229.684C568.911 230.143 570.191 230.94 571.227 232.004L569.243 234.125C568.462 233.257 567.491 232.579 566.407 232.143C565.333 231.689 564.18 231.453 563.014 231.449C561.762 231.437 560.52 231.68 559.364 232.163C558.264 232.628 557.267 233.307 556.433 234.162C555.598 235.016 554.943 236.028 554.504 237.139C553.579 239.579 553.579 242.273 554.504 244.712C554.947 245.845 555.623 246.871 556.488 247.726C557.325 248.594 558.34 249.271 559.464 249.709C560.687 250.196 561.995 250.438 563.312 250.422C564.287 250.422 565.259 250.309 566.208 250.085C567.171 249.879 568.104 249.552 568.985 249.114V242.155H563.729V239.657H571.663L571.564 250.878Z" fill="white"/>
<path opacity="0.75" d="M590.983 233.609C590.569 232.898 589.936 232.342 589.178 232.023C588.437 231.684 587.632 231.508 586.817 231.507C586.221 231.507 585.627 231.587 585.052 231.745C584.495 231.88 583.965 232.108 583.485 232.419C583.023 232.719 582.641 233.128 582.374 233.609C582.085 234.144 581.942 234.746 581.957 235.354C581.949 235.821 582.029 236.285 582.195 236.722C582.37 237.142 582.642 237.516 582.989 237.812C583.436 238.184 583.938 238.485 584.476 238.704C585.219 239.034 585.981 239.319 586.758 239.557C587.65 239.834 588.503 240.132 589.337 240.449C590.12 240.751 590.855 241.165 591.519 241.678C592.162 242.176 592.684 242.813 593.046 243.542C593.432 244.454 593.621 245.438 593.601 246.429C593.58 247.42 593.351 248.395 592.927 249.291C592.476 250.068 591.868 250.744 591.142 251.274C590.364 251.836 589.49 252.252 588.563 252.503C586.933 252.944 585.226 253.018 583.564 252.721C582.887 252.607 582.223 252.428 581.58 252.186C580.968 251.933 580.388 251.606 579.854 251.214C579.314 250.805 578.844 250.31 578.466 249.747L580.787 247.765C581.264 248.621 581.99 249.312 582.87 249.747C583.742 250.166 584.698 250.383 585.667 250.382C586.265 250.382 586.859 250.295 587.432 250.124C588.004 249.975 588.542 249.719 589.019 249.37C589.492 249.04 589.891 248.615 590.19 248.121C590.498 247.607 590.656 247.016 590.646 246.416C590.671 245.821 590.548 245.228 590.289 244.692C590.018 244.23 589.644 243.837 589.198 243.542C588.575 243.17 587.909 242.878 587.214 242.669L584.576 241.777C583.8 241.538 583.044 241.24 582.314 240.885C581.654 240.578 581.051 240.163 580.529 239.656C580.01 239.164 579.598 238.57 579.319 237.911C579.015 237.135 578.867 236.306 578.882 235.473C578.914 234.481 579.194 233.513 579.696 232.657C580.125 231.876 580.721 231.199 581.441 230.675C582.191 230.125 583.03 229.709 583.921 229.445C586.037 228.835 588.29 228.897 590.368 229.624C591.481 230.065 592.464 230.781 593.225 231.706L590.983 233.609Z" fill="white"/>
</g>
</g>
<defs>
<linearGradient id="paint0_linear_383_4904" x1="187.874" y1="209.621" x2="187.874" y2="80.2578" gradientUnits="userSpaceOnUse">
<stop stop-color="#A736E7"/>
<stop offset="1" stop-color="#5500E7"/>
</linearGradient>
<linearGradient id="paint1_linear_383_4904" x1="255.995" y1="125.342" x2="167.656" y2="278.421" gradientUnits="userSpaceOnUse">
<stop stop-color="#A4DC66"/>
<stop offset="1" stop-color="#43DC66"/>
</linearGradient>
<linearGradient id="paint2_linear_383_4904" x1="156.571" y1="167.551" x2="105.297" y2="256.396" gradientUnits="userSpaceOnUse">
<stop stop-color="#05F3FF"/>
<stop offset="1" stop-color="#0068FF"/>
</linearGradient>
<linearGradient id="paint3_linear_383_4904" x1="136.595" y1="88.0097" x2="69.8213" y2="203.746" gradientUnits="userSpaceOnUse">
<stop stop-color="#A4DC66"/>
<stop offset="1" stop-color="#43DC66"/>
</linearGradient>
<clipPath id="clip0_383_4904">
<rect width="514" height="173" fill="white" transform="translate(80 80)"/>
</clipPath>
</defs>
</svg>
