<svg width="125" height="43" viewBox="0 0 125 43" fill="none" xmlns="http://www.w3.org/2000/svg">
<path d="M41.4813 31.5292V6.3606C41.4813 4.6903 40.8252 3.08832 39.6575 1.90721C38.4896 0.726068 36.9059 0.0625 35.2544 0.0625H10.3704L41.4813 31.5292Z" fill="url(#paint0_linear_252_152)"/>
<path d="M41.4813 10.5518V35.7204C41.4813 37.3907 40.8252 38.9927 39.6575 40.1739C38.4896 41.3549 36.9059 42.0184 35.2544 42.0184H10.3704L41.4813 10.5518Z" fill="url(#paint1_linear_252_152)"/>
<path d="M0 10.5518V35.7204C0 37.3907 0.656051 38.9927 1.82385 40.1739C2.99162 41.3549 4.57549 42.0184 6.2269 42.0184H31.111L0 10.5518Z" fill="url(#paint2_linear_252_152)"/>
<path d="M0 31.5292V6.3606C0 4.6903 0.656051 3.08832 1.82385 1.90721C2.99162 0.726068 4.57549 0.0625 6.2269 0.0625H10.3704L20.7408 10.5514L0 31.5292Z" fill="url(#paint3_linear_252_152)"/>
<path d="M66.4368 7.78354C67.7513 7.76262 69.0543 8.03505 70.2527 8.58186C71.4509 9.12892 72.5151 9.93649 73.3696 10.9472C75.229 13.0498 76.1587 15.678 76.1587 18.8319C76.1587 21.9858 75.229 24.6157 73.3696 26.7215C72.5166 27.7348 71.453 28.5451 70.2546 29.0943C69.0562 29.6438 67.7525 29.9187 66.4368 29.8995C63.9241 29.8995 61.9693 29.0603 60.5579 27.387V29.3159H53.6921V0H60.5531V10.296C61.9837 8.62273 63.9241 7.78354 66.4368 7.78354ZM61.7595 22.14C62.6125 22.9464 63.7364 23.3946 64.904 23.3946C66.0714 23.3946 67.1953 22.9464 68.0484 22.14C68.4563 21.6973 68.7726 21.1765 68.979 20.6085C69.1853 20.0403 69.2773 19.4363 69.2499 18.8319C69.2768 18.2282 69.1843 17.6249 68.9781 17.0577C68.7716 16.4907 68.4558 15.9706 68.0484 15.5284C67.1953 14.7223 66.0714 14.2738 64.904 14.2738C63.7364 14.2738 62.6125 14.7223 61.7595 15.5284C61.3513 15.9704 61.0345 16.4899 60.8274 17.0572C60.6202 17.6244 60.5271 18.2277 60.5531 18.8319C60.5264 19.4368 60.6192 20.0408 60.8264 20.609C61.0336 21.177 61.3509 21.6975 61.7595 22.14Z" fill="black"/>
<path d="M92.2556 8.37207H99.1262V29.2968H92.2556V27.204C91.0159 29.001 89.0993 29.8996 86.5054 29.8996C85.4802 29.9327 84.4599 29.7422 83.5139 29.3411C82.5676 28.94 81.7179 28.3377 81.0223 27.5751C79.6014 26.0257 78.8911 23.8007 78.8911 20.9008V8.37207H85.7617V20.004C85.729 20.453 85.7874 20.9042 85.9333 21.3296C86.0792 21.7551 86.3097 22.1457 86.6104 22.4777C86.9123 22.7619 87.2675 22.982 87.6547 23.1253C88.0419 23.2685 88.4537 23.332 88.8657 23.3121C89.3269 23.342 89.7889 23.2712 90.2208 23.1048C90.6527 22.9384 91.0442 22.6804 91.3687 22.3476C92.0069 21.5529 92.3237 20.5432 92.2556 19.5216V8.37207Z" fill="black"/>
<path d="M123.543 29.2967H115.862L109.969 20.3848V29.2967H103.098V0H109.969V17.1199L115.304 8.37195H123.252L116.301 18.8319L123.543 29.2967Z" fill="black"/>
<path d="M54.528 34.98V39H55.86C57.27 39 58.086 38.124 58.086 36.99C58.086 35.85 57.27 34.98 55.86 34.98H54.528ZM55.002 38.568V35.406H55.854C56.982 35.406 57.606 36.096 57.606 36.99C57.606 37.878 56.982 38.568 55.854 38.568H55.002Z" fill="black"/>
<path d="M60.83 34.902C59.66 34.902 58.748 35.826 58.748 36.99C58.748 38.16 59.66 39.078 60.83 39.078C61.994 39.078 62.906 38.16 62.906 36.99C62.906 35.826 61.994 34.902 60.83 34.902ZM60.83 38.628C59.93 38.628 59.228 37.92 59.228 36.99C59.228 36.066 59.93 35.346 60.83 35.346C61.724 35.346 62.426 36.066 62.426 36.99C62.426 37.92 61.724 38.628 60.83 38.628Z" fill="black"/>
<path d="M67.2724 34.98H66.7984V38.208L64.1704 34.98H63.7624V39H64.2364V35.808L66.8644 39H67.2724V34.98Z" fill="black"/>
<path d="M68.435 36.558L69.017 34.992V34.98H68.477L68.081 36.558H68.435Z" fill="black"/>
<path d="M73.0222 35.406V34.98H69.5602V35.406H71.0542V39H71.5342V35.406H73.0222Z" fill="black"/>
<path d="M77.1016 38.634C76.2016 38.634 75.4936 37.914 75.4936 36.99C75.4936 36.06 76.2016 35.346 77.1016 35.346C77.7976 35.346 78.3556 35.718 78.5596 36.366L79.0156 36.234C78.7696 35.424 78.0256 34.902 77.1016 34.902C75.9316 34.902 75.0136 35.82 75.0136 36.99C75.0136 38.16 75.9316 39.078 77.1016 39.078C78.0256 39.078 78.7696 38.556 79.0156 37.716L78.5596 37.608C78.3496 38.268 77.7976 38.634 77.1016 38.634Z" fill="black"/>
<path d="M83.3402 39L81.5402 34.98H81.1022L79.3022 39H79.8122L80.2622 37.98H82.3802L82.8302 39H83.3402ZM82.1942 37.554H80.4482L81.3242 35.568L82.1942 37.554Z" fill="black"/>
<path d="M87.4403 34.98H86.9663V38.208L84.3383 34.98H83.9303V39H84.4043V35.808L87.0323 39H87.4403V34.98Z" fill="black"/>
<path d="M90.3789 38.634C89.4789 38.634 88.7709 37.914 88.7709 36.99C88.7709 36.06 89.4789 35.346 90.3789 35.346C91.0749 35.346 91.6329 35.718 91.8369 36.366L92.2929 36.234C92.0469 35.424 91.3029 34.902 90.3789 34.902C89.2089 34.902 88.2909 35.82 88.2909 36.99C88.2909 38.16 89.2089 39.078 90.3789 39.078C91.3029 39.078 92.0469 38.556 92.2929 37.716L91.8369 37.608C91.6269 38.268 91.0749 38.634 90.3789 38.634Z" fill="black"/>
<path d="M96.087 38.568H93.627V37.194H95.907V36.768H93.627V35.406H96.081V34.98H93.153V39H96.087V38.568Z" fill="black"/>
<path d="M99.7513 38.568H97.4473V34.98H96.9733V39H99.7513V38.568Z" fill="black"/>
<path d="M100.573 38.412C100.393 38.412 100.261 38.556 100.261 38.718C100.261 38.886 100.393 39.018 100.573 39.018C100.753 39.018 100.885 38.886 100.885 38.718C100.885 38.556 100.753 38.412 100.573 38.412Z" fill="black"/>
<path d="M106.567 39L105.013 37.278H105.085C105.871 37.278 106.399 36.816 106.399 36.126C106.399 35.436 105.871 34.98 105.085 34.98H103.225V39H103.699V37.278H104.437L105.973 39H106.567ZM103.699 36.846V35.406H105.085C105.589 35.406 105.925 35.694 105.925 36.126C105.925 36.558 105.589 36.846 105.085 36.846H103.699Z" fill="black"/>
<path d="M110.179 38.568H107.719V37.194H109.999V36.768H107.719V35.406H110.173V34.98H107.245V39H110.179V38.568Z" fill="black"/>
<path d="M112.403 34.902C111.545 34.902 110.975 35.364 110.975 36.054C110.975 36.696 111.425 36.966 111.941 37.08L112.847 37.278C113.297 37.38 113.501 37.53 113.501 37.908C113.501 38.352 113.135 38.658 112.523 38.658C111.899 38.658 111.437 38.34 111.347 37.776L110.849 37.878C110.945 38.64 111.629 39.078 112.481 39.078C113.381 39.078 113.975 38.616 113.975 37.884C113.975 37.242 113.519 36.96 112.961 36.84L112.085 36.642C111.707 36.564 111.479 36.402 111.479 36.042C111.479 35.61 111.851 35.316 112.391 35.316C112.943 35.316 113.345 35.628 113.435 36.114L113.909 36.006C113.771 35.346 113.207 34.902 112.403 34.902Z" fill="black"/>
<path d="M117.761 38.568H115.301V37.194H117.581V36.768H115.301V35.406H117.755V34.98H114.827V39H117.761V38.568Z" fill="black"/>
<path d="M121.425 38.568H119.121V34.98H118.647V39H121.425V38.568Z" fill="black"/>
<path d="M124.941 38.568H122.637V34.98H122.163V39H124.941V38.568Z" fill="black"/>
<defs>
<linearGradient id="paint0_linear_252_152" x1="25.9281" y1="31.5292" x2="25.9281" y2="0.0625" gradientUnits="userSpaceOnUse">
<stop stop-color="#A736E7"/>
<stop offset="1" stop-color="#5500E7"/>
</linearGradient>
<linearGradient id="paint1_linear_252_152" x1="42.3014" y1="11.0292" x2="20.6859" y2="48.0412" gradientUnits="userSpaceOnUse">
<stop stop-color="#A4DC66"/>
<stop offset="1" stop-color="#43DC66"/>
</linearGradient>
<linearGradient id="paint2_linear_252_152" x1="18.4043" y1="21.2963" x2="5.85819" y2="42.7775" gradientUnits="userSpaceOnUse">
<stop stop-color="#05F3FF"/>
<stop offset="1" stop-color="#0068FF"/>
</linearGradient>
<linearGradient id="paint3_linear_252_152" x1="13.603" y1="1.9481" x2="-2.73578" y2="29.9313" gradientUnits="userSpaceOnUse">
<stop stop-color="#A4DC66"/>
<stop offset="1" stop-color="#43DC66"/>
</linearGradient>
</defs>
</svg>
