<svg width="72" height="90" viewBox="0 0 72 90" fill="none" xmlns="http://www.w3.org/2000/svg">
<path d="M56.365 31.5292V6.3606C56.365 4.6903 55.7088 3.08832 54.5412 1.90721C53.3733 0.726068 51.7896 0.0625 50.1381 0.0625H25.254L56.365 31.5292Z" fill="url(#paint0_linear_252_130)"/>
<path d="M56.365 10.5518V35.7204C56.365 37.3907 55.7088 38.9927 54.5412 40.1739C53.3733 41.3549 51.7896 42.0184 50.1381 42.0184H25.254L56.365 10.5518Z" fill="url(#paint1_linear_252_130)"/>
<path d="M14.8837 10.5518V35.7204C14.8837 37.3907 15.5397 38.9927 16.7075 40.1739C17.8753 41.3549 19.4592 42.0184 21.1106 42.0184H45.9946L14.8837 10.5518Z" fill="url(#paint2_linear_252_130)"/>
<path d="M14.8837 31.5292V6.3606C14.8837 4.6903 15.5397 3.08832 16.7075 1.90721C17.8753 0.726068 19.4592 0.0625 21.1106 0.0625H25.2541L35.6245 10.5514L14.8837 31.5292Z" fill="url(#paint3_linear_252_130)"/>
<path d="M12.7446 57.8021C14.0592 57.7812 15.3621 58.0536 16.5605 58.6004C17.7587 59.1475 18.823 59.955 19.6775 60.9657C21.5369 63.0683 22.4666 65.6966 22.4666 68.8504C22.4666 72.0043 21.5369 74.6343 19.6775 76.74C18.8245 77.7534 17.7609 78.5636 16.5625 79.1129C15.364 79.6624 14.0604 79.9372 12.7446 79.918C10.232 79.918 8.27714 79.0788 6.86577 77.4056V79.3345H0V50.0186H6.86097V60.3146C8.29157 58.6413 10.232 57.8021 12.7446 57.8021ZM8.06732 72.1586C8.92034 72.9649 10.0442 73.4132 11.2119 73.4132C12.3793 73.4132 13.5032 72.9649 14.3562 72.1586C14.7641 71.7159 15.0804 71.1951 15.2869 70.6271C15.4931 70.0589 15.5852 69.4549 15.5578 68.8504C15.5847 68.2467 15.4922 67.6435 15.2859 67.0762C15.0795 66.5092 14.7636 65.9892 14.3562 65.547C13.5032 64.7409 12.3793 64.2923 11.2119 64.2923C10.0442 64.2923 8.92034 64.7409 8.06732 65.547C7.65919 65.9889 7.3424 66.5085 7.13521 67.0757C6.92802 67.643 6.83501 68.2462 6.86097 68.8504C6.83429 69.4554 6.92706 70.0594 7.13425 70.6276C7.34144 71.1956 7.65871 71.7161 8.06732 72.1586Z" fill="black"/>
<path d="M38.5635 58.3906H45.4341V79.3154H38.5635V77.2225C37.3237 79.0196 35.4071 79.9181 32.8132 79.9181C31.7881 79.9512 30.7678 79.7608 29.8217 79.3596C28.8755 78.9585 28.0258 78.3563 27.3302 77.5937C25.9092 76.0442 25.199 73.8193 25.199 70.9194V58.3906H32.0695V70.0225C32.0369 70.4715 32.0953 70.9228 32.2412 71.3482C32.3871 71.7736 32.6176 72.1643 32.9183 72.4963C33.2201 72.7804 33.5754 73.0005 33.9626 73.1438C34.3498 73.2871 34.7615 73.3506 35.1735 73.3306C35.6348 73.3605 36.0967 73.2898 36.5286 73.1234C36.9606 72.957 37.3521 72.6989 37.6766 72.3662C38.3147 71.5715 38.6315 70.5618 38.5635 69.5402V58.3906Z" fill="black"/>
<path d="M69.8509 79.3153H62.1699L56.2766 70.4033V79.3153H49.4058V50.0186H56.2766V67.1385L61.612 58.3905H69.5601L62.6085 68.8504L69.8509 79.3153Z" fill="black"/>
<path d="M0.835861 84.9986V89.0186H2.16786C3.57786 89.0186 4.39386 88.1426 4.39386 87.0086C4.39386 85.8686 3.57786 84.9986 2.16786 84.9986H0.835861ZM1.30986 88.5866V85.4246H2.16186C3.28986 85.4246 3.91386 86.1146 3.91386 87.0086C3.91386 87.8966 3.28986 88.5866 2.16186 88.5866H1.30986Z" fill="black"/>
<path d="M7.13783 84.9206C5.96783 84.9206 5.05583 85.8446 5.05583 87.0086C5.05583 88.1786 5.96783 89.0966 7.13783 89.0966C8.30183 89.0966 9.21383 88.1786 9.21383 87.0086C9.21383 85.8446 8.30183 84.9206 7.13783 84.9206ZM7.13783 88.6466C6.23783 88.6466 5.53583 87.9386 5.53583 87.0086C5.53583 86.0846 6.23783 85.3646 7.13783 85.3646C8.03183 85.3646 8.73383 86.0846 8.73383 87.0086C8.73383 87.9386 8.03183 88.6466 7.13783 88.6466Z" fill="black"/>
<path d="M13.5802 84.9986H13.1062V88.2266L10.4782 84.9986H10.0702V89.0186H10.5442V85.8266L13.1722 89.0186H13.5802V84.9986Z" fill="black"/>
<path d="M14.7428 86.5766L15.3248 85.0106V84.9986H14.7848L14.3888 86.5766H14.7428Z" fill="black"/>
<path d="M19.33 85.4246V84.9986H15.868V85.4246H17.362V89.0186H17.842V85.4246H19.33Z" fill="black"/>
<path d="M23.4095 88.6526C22.5095 88.6526 21.8015 87.9326 21.8015 87.0086C21.8015 86.0786 22.5095 85.3646 23.4095 85.3646C24.1055 85.3646 24.6635 85.7366 24.8675 86.3846L25.3235 86.2526C25.0775 85.4426 24.3335 84.9206 23.4095 84.9206C22.2395 84.9206 21.3215 85.8386 21.3215 87.0086C21.3215 88.1786 22.2395 89.0966 23.4095 89.0966C24.3335 89.0966 25.0775 88.5746 25.3235 87.7346L24.8675 87.6266C24.6575 88.2866 24.1055 88.6526 23.4095 88.6526Z" fill="black"/>
<path d="M29.648 89.0186L27.848 84.9986H27.41L25.61 89.0186H26.12L26.57 87.9986H28.688L29.1381 89.0186H29.648ZM28.502 87.5726H26.756L27.632 85.5866L28.502 87.5726Z" fill="black"/>
<path d="M33.7482 84.9986H33.2742V88.2266L30.6462 84.9986H30.2382V89.0186H30.7122V85.8266L33.3402 89.0186H33.7482V84.9986Z" fill="black"/>
<path d="M36.6868 88.6526C35.7868 88.6526 35.0788 87.9326 35.0788 87.0086C35.0788 86.0786 35.7868 85.3646 36.6868 85.3646C37.3828 85.3646 37.9408 85.7366 38.1448 86.3846L38.6008 86.2526C38.3548 85.4426 37.6108 84.9206 36.6868 84.9206C35.5168 84.9206 34.5988 85.8386 34.5988 87.0086C34.5988 88.1786 35.5168 89.0966 36.6868 89.0966C37.6108 89.0966 38.3548 88.5746 38.6008 87.7346L38.1448 87.6266C37.9348 88.2866 37.3828 88.6526 36.6868 88.6526Z" fill="black"/>
<path d="M42.3949 88.5866H39.9349V87.2126H42.2149V86.7866H39.9349V85.4246H42.3889V84.9986H39.4609V89.0186H42.3949V88.5866Z" fill="black"/>
<path d="M46.0592 88.5866H43.7552V84.9986H43.2812V89.0186H46.0592V88.5866Z" fill="black"/>
<path d="M46.8808 88.4306C46.7008 88.4306 46.5688 88.5746 46.5688 88.7366C46.5688 88.9046 46.7008 89.0366 46.8808 89.0366C47.0608 89.0366 47.1928 88.9046 47.1928 88.7366C47.1928 88.5746 47.0608 88.4306 46.8808 88.4306Z" fill="black"/>
<path d="M52.8751 89.0186L51.3211 87.2966H51.3931C52.1791 87.2966 52.7071 86.8346 52.7071 86.1446C52.7071 85.4546 52.1791 84.9986 51.3931 84.9986H49.5331V89.0186H50.0071V87.2966H50.7451L52.2811 89.0186H52.8751ZM50.0071 86.8646V85.4246H51.3931C51.8971 85.4246 52.2331 85.7126 52.2331 86.1446C52.2331 86.5766 51.8971 86.8646 51.3931 86.8646H50.0071Z" fill="black"/>
<path d="M56.4867 88.5866H54.0267V87.2126H56.3067V86.7866H54.0267V85.4246H56.4807V84.9986H53.5527V89.0186H56.4867V88.5866Z" fill="black"/>
<path d="M58.711 84.9206C57.853 84.9206 57.283 85.3826 57.283 86.0726C57.283 86.7146 57.733 86.9846 58.249 87.0986L59.155 87.2966C59.605 87.3986 59.809 87.5486 59.809 87.9266C59.809 88.3706 59.443 88.6766 58.831 88.6766C58.207 88.6766 57.745 88.3586 57.655 87.7946L57.157 87.8966C57.253 88.6586 57.937 89.0966 58.789 89.0966C59.689 89.0966 60.283 88.6346 60.283 87.9026C60.283 87.2606 59.827 86.9786 59.269 86.8586L58.393 86.6606C58.015 86.5826 57.787 86.4206 57.787 86.0606C57.787 85.6286 58.159 85.3346 58.699 85.3346C59.251 85.3346 59.653 85.6466 59.743 86.1326L60.217 86.0246C60.079 85.3646 59.515 84.9206 58.711 84.9206Z" fill="black"/>
<path d="M64.0687 88.5866H61.6087V87.2126H63.8887V86.7866H61.6087V85.4246H64.0627V84.9986H61.1347V89.0186H64.0687V88.5866Z" fill="black"/>
<path d="M67.733 88.5866H65.429V84.9986H64.955V89.0186H67.733V88.5866Z" fill="black"/>
<path d="M71.2486 88.5866H68.9446V84.9986H68.4706V89.0186H71.2486V88.5866Z" fill="black"/>
<defs>
<linearGradient id="paint0_linear_252_130" x1="40.8118" y1="31.5292" x2="40.8118" y2="0.0625" gradientUnits="userSpaceOnUse">
<stop stop-color="#A736E7"/>
<stop offset="1" stop-color="#5500E7"/>
</linearGradient>
<linearGradient id="paint1_linear_252_130" x1="57.1851" y1="11.0292" x2="35.5696" y2="48.0412" gradientUnits="userSpaceOnUse">
<stop stop-color="#A4DC66"/>
<stop offset="1" stop-color="#43DC66"/>
</linearGradient>
<linearGradient id="paint2_linear_252_130" x1="33.288" y1="21.2963" x2="20.7419" y2="42.7775" gradientUnits="userSpaceOnUse">
<stop stop-color="#05F3FF"/>
<stop offset="1" stop-color="#0068FF"/>
</linearGradient>
<linearGradient id="paint3_linear_252_130" x1="28.4866" y1="1.9481" x2="12.1479" y2="29.9313" gradientUnits="userSpaceOnUse">
<stop stop-color="#A4DC66"/>
<stop offset="1" stop-color="#43DC66"/>
</linearGradient>
</defs>
</svg>
