<?xml version="1.0" encoding="UTF-8"?>
<svg id="Layer_1" data-name="Layer 1" xmlns="http://www.w3.org/2000/svg" viewBox="0 0 1080 1080">
  <defs>
    <style>
      .cls-1, .cls-2 {
        stroke-width: 0px;
      }

      .cls-2 {
        fill: #fff;
      }
    </style>
  </defs>
  <rect class="cls-2" width="1080" height="1080"/>
  <g>
    <path class="cls-1" d="m540.4,196.71v-107.14h-214.56v536.45h428.97V196.16c-71.87,0-143.41,0-214.96,0,0,35.66,0,71.31,0,108.58h106.79v213.09h-212.84V196.71h106.6Z"/>
    <g>
      <path class="cls-1" d="m326.19,905.47v-221.12h31.59v63.18h63.18v31.59h-63.18v94.77h63.18v31.59h-94.77Zm126.35-31.59h-31.59v-94.77h31.59v94.77Z"/>
      <path class="cls-1" d="m506.7,873.89h-31.59v-126.35h31.59v126.35Zm0,31.59v-31.59h63.18v-126.35h31.59v157.94h-94.76Z"/>
      <path class="cls-1" d="m655.61,684.35v126.35h31.59v31.59h-31.59v63.18h-31.59v-221.12h31.59Zm31.59,126.35v-31.59h31.59v31.59h-31.59Zm31.59,63.18h-31.59v-31.59h31.59v31.59Zm0-126.35h31.59v31.59h-31.59v-31.59Zm0,157.94v-31.59h31.59v31.59h-31.59Z"/>
    </g>
    <g>
      <path class="cls-1" d="m329.23,951.57v8.09h8.09v4.05h-8.09v12.14h-4.05v-28.32h12.14v4.05h-8.09Zm8.09,0h4.05v8.09h-4.05v-8.09Z"/>
      <path class="cls-1" d="m386.45,959.66h8.09v4.05h-8.09v12.14h-4.05v-28.32h12.14v4.05h-8.09v8.09Zm12.14,0h-4.05v-8.09h4.05v8.09Zm-4.05,4.05h4.05v12.14h-4.05v-12.14Z"/>
      <path class="cls-1" d="m436.15,951.57h4.05v20.23h-4.05v-20.23Zm4.05-4.05h12.14v4.05h-12.14v-4.05Zm0,24.28h12.14v4.05h-12.14v-4.05Zm12.14-20.23h4.05v20.23h-4.05v-20.23Z"/>
      <path class="cls-1" d="m516.48,947.52v4.05h-8.09v24.28h-4.05v-24.28h-8.09v-4.05h20.23Z"/>
      <path class="cls-1" d="m552.88,951.57h4.05v20.23h-4.05v-20.23Zm4.05-4.05h12.14v4.05h-12.14v-4.05Zm0,24.28h12.14v4.05h-12.14v-4.05Zm12.14-20.23h4.05v20.23h-4.05v-20.23Z"/>
      <path class="cls-1" d="m610.67,951.57h4.05v20.23h-4.05v-20.23Zm4.05-4.05h12.14v4.05h-12.14v-4.05Zm0,24.28h16.18v4.05h-16.18v-4.05Zm12.14-20.23h4.05v4.05h-4.05v-4.05Z"/>
      <path class="cls-1" d="m668.46,951.57h4.05v20.23h-4.05v-20.23Zm4.05-4.05h12.14v4.05h-12.14v-4.05Zm0,24.28h12.14v4.05h-12.14v-4.05Zm12.14-20.23h4.05v20.23h-4.05v-20.23Z"/>
      <path class="cls-1" d="m733.77,971.8h12.14v4.05h-16.18v-28.32h4.05v24.28Z"/>
    </g>
  </g>
</svg>